<?xml version="1.0" encoding="UTF-8" standalone="no"?>
<svg width="414px" height="81px" viewBox="0 0 414 81" version="1.1" xmlns="http://www.w3.org/2000/svg" xmlns:xlink="http://www.w3.org/1999/xlink">
    <defs>
        <linearGradient x1="36.1095493%" y1="0%" x2="65.9429085%" y2="100%" id="linearGradient-1">
            <stop stop-color="#FF824C" offset="0%"></stop>
            <stop stop-color="#FF4D00" offset="100%"></stop>
        </linearGradient>
        <linearGradient x1="64.4062534%" y1="0%" x2="27.5268828%" y2="134.484858%" id="linearGradient-2">
            <stop stop-color="#2BC3FF" offset="0%"></stop>
            <stop stop-color="#0069C6" offset="100%"></stop>
        </linearGradient>
    </defs>
    <g id="Page-1" stroke="none" stroke-width="1" fill="none" fill-rule="evenodd">
        <g id="Projekte" transform="translate(-70.000000, -84.000000)">
            <g id="Logo" transform="translate(70.000000, 84.000000)">
                <g id="logo">
                    <g id="Page-1">
                        <g>
                            <g id="logo">
                                <g id="Word" transform="translate(0.100661, 0.003268)" fill="#000000">
                                    <path d="M377.422644,28.1222769 C377.112185,28.224245 376.715049,28.2752284 376.231229,28.2752284 L374.735671,28.2752284 L374.735671,0.209675011 L364.656908,0.209675011 L364.656908,48.5185471 L374.735671,48.5185471 L374.735671,35.5225834 L376.686399,35.5225834 C376.98883,35.5225834 377.256094,35.540035 377.488193,35.5749386 L384.299234,47.0538189 C384.605992,47.6065569 384.944548,48.0008572 385.433441,48.2200465 C385.922336,48.4392356 386.50229,48.5488286 387.173322,48.5488286 L396.057713,48.5488286 L387.660277,34.3683111 C387.031703,33.3078939 385.427428,31.7982981 385.420042,31.7933723 C385.427428,31.7884465 387.031703,30.2788507 387.660277,29.2184335 L396.057713,15.037916 L387.173322,15.037916 C386.50229,15.037916 385.922336,15.1475089 385.433441,15.3666981 C384.944548,15.5858873 384.605992,15.9801877 384.299234,16.5329257 L377.422644,28.1222769 L377.422644,28.1222769 Z M10.9891027,15.0540846 L10.9891027,48.5185471 L0.910339871,48.5185471 L0.910339871,15.0540846 L10.9891027,15.0540846 L10.9891027,15.0540846 Z M11.6718576,8.13207186 C11.3467346,8.83126856 10.9024065,9.44440108 10.33886,9.97148782 C9.77531342,10.4985746 9.11965852,10.9180863 8.3718756,11.2300356 C7.62409268,11.5419849 6.82755326,11.6979572 5.98223344,11.6979572 C5.15858848,11.6979572 4.38914224,11.5419849 3.67387163,11.2300356 C2.95860101,10.9180863 2.32462065,10.4985746 1.77191153,9.97148782 C1.21920242,9.44440108 0.78571158,8.83126856 0.471426005,8.13207186 C0.15714043,7.43287515 0,6.68528374 0,5.8892752 C0,5.0717529 0.15714043,4.30802642 0.471426005,3.59807285 C0.78571158,2.88811927 1.21920242,2.26423003 1.77191153,1.72638642 C2.32462065,1.18854281 2.95860101,0.76903108 3.67387163,0.467838656 C4.38914224,0.16664623 5.15858848,0.0160522773 5.98223344,0.0160522773 C6.82755326,0.0160522773 7.62409268,0.16664623 8.3718756,0.467838656 C9.11965852,0.76903108 9.77531342,1.18854281 10.33886,1.72638642 C10.9024065,2.26423003 11.3467346,2.88811927 11.6718576,3.59807285 C11.9969806,4.30802642 12.1595397,5.0717529 12.1595397,5.8892752 C12.1595397,6.68528374 11.9969806,7.43287515 11.6718576,8.13207186 L11.6718576,8.13207186 Z M17.3109074,48.5185471 L17.3109074,15.0540846 L23.5532379,15.0540846 C24.1818091,15.0540846 24.7074167,15.1939218 25.1300767,15.4736005 C25.5527366,15.7532791 25.8507615,16.1727909 26.0241605,16.7321483 L26.6093789,18.6683756 C27.2596249,18.0659907 27.9315358,17.5066417 28.6251315,16.9903119 C29.3187273,16.473982 30.0610804,16.0383352 30.8522129,15.6833585 C31.6433456,15.3283817 32.4994901,15.0487071 33.4206719,14.8443266 C34.3418538,14.639946 35.3443013,14.5377572 36.4280447,14.5377572 C38.2704084,14.5377572 39.9014177,14.8550802 41.3211215,15.4897357 C42.7408253,16.1243912 43.9383438,17.0064415 44.9137128,18.1359131 C45.8890819,19.2653846 46.6260162,20.6099735 47.1245382,22.1697201 C47.6230602,23.7294665 47.8723174,25.4236485 47.8723174,27.2523168 L47.8723174,48.5185471 L37.7935544,48.5185471 L37.7935544,27.2523168 C37.7935544,25.6172722 37.41425,24.342602 36.6556296,23.4282678 C35.8970094,22.5139336 34.7807704,22.0567735 33.3068795,22.0567735 C32.2014612,22.0567735 31.1610831,22.2934211 30.1857141,22.7667235 C29.2103452,23.2400259 28.2783398,23.8746718 27.3896702,24.6706803 L27.3896702,48.5185471 L17.3109074,48.5185471 L17.3109074,48.5185471 Z M65.9562912,49.0348743 C64.3523509,49.0348743 62.9380871,48.803605 61.7134572,48.3410595 C60.4888271,47.878514 59.4592864,47.2223547 58.624804,46.3725618 C57.7903216,45.5227688 57.1563413,44.4955029 56.7228439,43.2907333 C56.2893465,42.0859635 56.0726012,40.7413747 56.0726012,39.2569263 L56.0726012,21.9599621 L53.211533,21.9599621 C52.6913362,21.9599621 52.247008,21.793233 51.8785353,21.45977 C51.5100626,21.126307 51.3258289,20.6368766 51.3258289,19.9914642 L51.3258289,16.0867391 L56.6903318,15.0540846 L58.6735722,6.88965931 C58.9336707,5.85699958 59.6706051,5.34067744 60.8843976,5.34067744 L66.151364,5.34067744 L66.151364,15.1186255 L74.3444228,15.1186255 L74.3444228,21.9599621 L66.151364,21.9599621 L66.151364,38.5792467 C66.151364,39.3537415 66.3410162,39.9937658 66.7203264,40.4993388 C67.0996366,41.0049118 67.6469188,41.2576945 68.3621893,41.2576945 C68.7306622,41.2576945 69.0395244,41.220046 69.2887853,41.1447479 C69.5380463,41.0694498 69.7547917,40.9833962 69.9390281,40.8865842 C70.1232645,40.7897724 70.2966609,40.7037187 70.4592223,40.6284206 C70.6217838,40.5531225 70.811436,40.515474 71.0281847,40.515474 C71.3316328,40.515474 71.5754715,40.5853926 71.7597078,40.725232 C71.9439442,40.8650713 72.1335964,41.0855839 72.3286703,41.3867763 L75.3848112,46.1305333 C74.0843193,47.0986518 72.6212877,47.8247298 70.9956726,48.308789 C69.3700575,48.7928483 67.6902806,49.0348743 65.9562912,49.0348743 L65.9562912,49.0348743 Z M92.760743,14.5377572 C94.9932543,14.5377572 97.0360798,14.881972 98.889281,15.5704119 C100.742482,16.2588517 102.335561,17.2592258 103.668565,18.5715642 C105.00157,19.8839026 106.041948,21.492031 106.789731,23.3959974 C107.537513,25.2999638 107.911399,27.4566843 107.911399,29.8662237 C107.911399,30.6192047 107.878888,31.2323373 107.813863,31.7056397 C107.748838,32.1789421 107.629628,32.5554269 107.456229,32.8351056 C107.28283,33.1147842 107.049829,33.308405 106.757218,33.4159738 C106.464608,33.5235425 106.090722,33.5773261 105.63555,33.5773261 L86.193291,33.5773261 C86.518414,36.3741129 87.3745585,38.4017529 88.7617499,39.6603069 C90.1489414,40.918861 91.9370912,41.5481286 94.1262528,41.5481286 C95.2966956,41.5481286 96.3045618,41.4082914 97.1498816,41.1286127 C97.9952014,40.848934 98.7483918,40.5369893 99.4094752,40.1927695 C100.070559,39.8485495 100.677446,39.536605 101.230155,39.2569263 C101.782864,38.9772476 102.362658,38.8374103 102.969554,38.8374103 C103.771524,38.8374103 104.378412,39.1278416 104.790234,39.7087127 L107.716327,43.2907333 C106.675933,44.4739891 105.554275,45.4367148 104.35132,46.178939 C103.148365,46.9211632 101.912916,47.5020255 100.644936,47.9215436 C99.3769568,48.3410616 98.108996,48.6314928 96.8410163,48.7928459 C95.5730366,48.954199 94.3646809,49.0348743 93.2159129,49.0348743 C90.8533524,49.0348743 88.6371304,48.6530111 86.5671806,47.8892731 C84.4972307,47.1255352 82.6874065,45.9907022 81.1376535,44.4847401 C79.5879005,42.9787779 78.3632889,41.1071102 77.4637819,38.8696808 C76.5642749,36.6322513 76.1145281,34.0291273 76.1145281,31.0602305 C76.1145281,28.8228011 76.4992513,26.703729 77.268709,24.7029508 C78.0381668,22.7021726 79.1435685,20.9488287 80.5849471,19.4428665 C82.0263259,17.9369045 83.7711265,16.7429095 85.8194015,15.8608459 C87.8676764,14.9787824 90.1814337,14.5377572 92.760743,14.5377572 L92.760743,14.5377572 Z M88.4366286,23.0732927 C87.3528851,24.1597369 86.6376253,25.7248383 86.2908274,27.768644 L98.8730249,27.768644 C98.8730249,26.9726356 98.7700709,26.1981523 98.5641596,25.4451712 C98.3582484,24.6921903 98.022293,24.0198958 97.5562833,23.4282678 C97.0902737,22.8366398 96.4779679,22.3579662 95.7193475,21.9922325 C94.9607272,21.6264989 94.0395591,21.4436348 92.9558158,21.4436348 C91.0267525,21.4436348 89.5203719,21.9868487 88.4366286,23.0732927 L88.4366286,23.0732927 Z M180.610263,48.5185471 C179.656568,48.5185471 178.935889,48.3894665 178.448205,48.1313016 C177.96052,47.8731366 177.554122,47.335301 177.228999,46.5177788 L176.513732,44.6783628 C175.668413,45.3883164 174.855618,46.0122056 174.075323,46.5500492 C173.295027,47.0878929 172.48765,47.545053 171.653168,47.9215436 C170.818686,48.2980341 169.930029,48.5777087 168.987173,48.7605754 C168.044315,48.9434423 166.998519,49.0348743 165.849751,49.0348743 C164.310835,49.0348743 162.912828,48.8358751 161.655685,48.4378709 C160.398543,48.0398666 159.331072,47.4536259 158.45324,46.679131 C157.575407,45.9046362 156.898078,44.9419107 156.421231,43.7909252 C155.944384,42.6399399 155.705964,41.3114862 155.705964,39.805524 C155.705964,38.6222681 156.009408,37.4067597 156.616303,36.1589625 C157.2232,34.9111653 158.274415,33.7763324 159.769981,32.7544295 C161.265547,31.7325266 163.281279,30.8773681 165.817239,30.1889282 C168.353198,29.5004884 171.550194,29.1132468 175.40832,29.0271918 L175.40832,27.6072918 C175.40832,25.6495411 175.001922,24.2350335 174.189115,23.3637269 C173.376308,22.4924202 172.222138,22.0567735 170.726572,22.0567735 C169.534454,22.0567735 168.559099,22.185854 167.80048,22.4440189 C167.04186,22.7021838 166.36453,22.992615 165.768471,23.3153212 C165.172412,23.6380274 164.592618,23.9284586 164.029071,24.1866235 C163.465525,24.4447884 162.793614,24.5738689 162.013319,24.5738689 C161.319723,24.5738689 160.729092,24.40714 160.241407,24.0736769 C159.753723,23.7402139 159.369,23.3260804 159.087227,22.8312644 L157.266547,19.7010302 C159.303984,17.9153894 161.563555,16.5869356 164.045327,15.7156289 C166.527099,14.8443223 169.18765,14.4086755 172.027057,14.4086755 C174.064495,14.4086755 175.901413,14.7367551 177.537865,15.3929244 C179.174317,16.0490935 180.561488,16.963414 181.699419,18.1359131 C182.837349,19.3084122 183.709749,20.7014062 184.316645,22.3149371 C184.923542,23.9284679 185.226985,25.6925685 185.226985,27.6072918 L185.226985,48.5185471 L180.610263,48.5185471 L180.610263,48.5185471 Z M169.035941,42.4194309 C170.336433,42.4194309 171.474346,42.19354 172.449716,41.7417514 C173.425085,41.2899627 174.411275,40.5585064 175.40832,39.5473603 L175.40832,34.9004148 C173.392558,34.9864697 171.734454,35.1585771 170.433963,35.416742 C169.133471,35.674907 168.103929,35.9976084 167.34531,36.3848557 C166.58669,36.7721031 166.061082,37.2131282 165.768471,37.7079444 C165.47586,38.2027605 165.329557,38.7405961 165.329557,39.3214672 C165.329557,40.4616957 165.643838,41.2630706 166.272409,41.7256161 C166.900981,42.1881616 167.822148,42.4194309 169.035941,42.4194309 L169.035941,42.4194309 Z M215.79562,22.9926167 C215.492172,23.3583503 215.199566,23.6487816 214.917792,23.8639189 C214.636019,24.0790564 214.23504,24.1866235 213.714843,24.1866235 C213.216321,24.1866235 212.766575,24.0682997 212.36559,23.8316485 C211.964605,23.5949973 211.514858,23.3314579 211.016336,23.0410223 C210.517815,22.7505868 209.932602,22.4870474 209.260681,22.2503961 C208.58876,22.013745 207.754289,21.8954212 206.757247,21.8954212 C205.521779,21.8954212 204.454308,22.1213121 203.5548,22.5731008 C202.655293,23.0248893 201.912941,23.670292 201.327719,24.509328 C200.742498,25.3483641 200.309006,26.37563 200.027234,27.5911565 C199.745461,28.8066831 199.604576,30.1781638 199.604576,31.7056397 C199.604576,34.9111876 200.227719,37.3744744 201.474023,39.095574 C202.720329,40.8166736 204.438036,41.6772104 206.627197,41.6772104 C207.79764,41.6772104 208.724227,41.5319949 209.406986,41.2415593 C210.089744,40.9511238 210.669538,40.6284224 211.146385,40.2734456 C211.623232,39.9184689 212.062141,39.5903891 212.463126,39.2891967 C212.864112,38.9880043 213.368044,38.8374103 213.974941,38.8374103 C214.776911,38.8374103 215.383798,39.1278416 215.79562,39.7087127 L218.721713,43.2907333 C217.681319,44.4739891 216.586755,45.4367148 215.437987,46.178939 C214.289219,46.9211632 213.113376,47.5020255 211.91042,47.9215436 C210.707465,48.3410616 209.499109,48.6314928 208.285316,48.7928459 C207.071524,48.954199 205.890261,49.0348743 204.741493,49.0348743 C202.682381,49.0348743 200.715417,48.6476327 198.84054,47.8731379 C196.965664,47.0986431 195.318399,45.9745669 193.898695,44.5008753 C192.478992,43.0271838 191.351915,41.214678 190.517433,39.0633035 C189.68295,36.9119291 189.265716,34.459399 189.265716,31.7056397 C189.265716,29.2961002 189.628765,27.0425693 190.354872,24.9449792 C191.08098,22.8473891 192.15387,21.029505 193.573573,19.4912722 C194.993278,17.9530395 196.748915,16.7429095 198.84054,15.8608459 C200.932166,14.9787824 203.354295,14.5377572 206.107003,14.5377572 C208.751337,14.5377572 211.070513,14.957269 213.064601,15.796305 C215.058689,16.6353411 216.857676,17.8616062 218.461615,19.475137 L215.79562,22.9926167 L215.79562,22.9926167 Z M235.707499,14.5377572 C237.94001,14.5377572 239.982836,14.881972 241.836037,15.5704119 C243.689238,16.2588517 245.282318,17.2592258 246.615322,18.5715642 C247.948326,19.8839026 248.988704,21.492031 249.736486,23.3959974 C250.48427,25.2999638 250.858155,27.4566843 250.858155,29.8662237 C250.858155,30.6192047 250.825643,31.2323373 250.760619,31.7056397 C250.695594,32.1789421 250.576384,32.5554269 250.402985,32.8351056 C250.229587,33.1147842 249.996585,33.308405 249.703975,33.4159738 C249.411363,33.5235425 249.037478,33.5773261 248.582305,33.5773261 L229.140047,33.5773261 C229.46517,36.3741129 230.321315,38.4017529 231.708506,39.6603069 C233.095697,40.918861 234.883847,41.5481286 237.073009,41.5481286 C238.243452,41.5481286 239.251318,41.4082914 240.096638,41.1286127 C240.941958,40.848934 241.695148,40.5369893 242.356231,40.1927695 C243.017314,39.8485495 243.624202,39.536605 244.176911,39.2569263 C244.72962,38.9772476 245.309414,38.8374103 245.91631,38.8374103 C246.718281,38.8374103 247.325167,39.1278416 247.73699,39.7087127 L250.663082,43.2907333 C249.62269,44.4739891 248.501032,45.4367148 247.298076,46.178939 C246.095121,46.9211632 244.859673,47.5020255 243.591692,47.9215436 C242.323713,48.3410616 241.055752,48.6314928 239.787773,48.7928459 C238.519792,48.954199 237.311437,49.0348743 236.162669,49.0348743 C233.800108,49.0348743 231.583887,48.6530111 229.513937,47.8892731 C227.443986,47.1255352 225.634163,45.9907022 224.08441,44.4847401 C222.534657,42.9787779 221.310045,41.1071102 220.410538,38.8696808 C219.511031,36.6322513 219.061284,34.0291273 219.061284,31.0602305 C219.061284,28.8228011 219.446008,26.703729 220.215465,24.7029508 C220.984923,22.7021726 222.090324,20.9488287 223.531704,19.4428665 C224.973082,17.9369045 226.717882,16.7429095 228.766157,15.8608459 C230.814432,14.9787824 233.12819,14.5377572 235.707499,14.5377572 L235.707499,14.5377572 Z M235.902572,21.4436348 C233.973508,21.4436348 232.467128,21.9868487 231.383384,23.0732927 C230.299641,24.1597369 229.584381,25.7248383 229.237583,27.768644 L241.819781,27.768644 C241.819781,26.9726356 241.716827,26.1981523 241.510916,25.4451712 C241.305004,24.6921903 240.969049,24.0198958 240.503039,23.4282678 C240.03703,22.8366398 239.424724,22.3579662 238.666103,21.9922325 C237.907483,21.6264989 236.986316,21.4436348 235.902572,21.4436348 L235.902572,21.4436348 Z M251.840745,15.0540846 L259.903754,15.0540846 C260.619025,15.0540846 261.23675,15.2154352 261.756947,15.5381414 C262.277144,15.8608476 262.591424,16.2803593 262.699799,16.7966891 L266.081061,31.802451 C266.341159,32.9426795 266.579579,34.0506207 266.796328,35.126308 C267.013077,36.2019951 267.208148,37.2669096 267.381547,38.3210831 C267.684995,37.2669096 268.004695,36.2073735 268.340654,35.1424431 C268.676616,34.0775129 269.007152,32.9641932 269.332275,31.802451 L273.558853,16.7644187 C273.688903,16.2696026 274.003183,15.8554692 274.501705,15.5220061 C275.000227,15.1885432 275.574602,15.0218142 276.224848,15.0218142 L280.711523,15.0218142 C281.426794,15.0218142 282.0391,15.1885432 282.54846,15.5220061 C283.057819,15.8554692 283.377518,16.2696026 283.507567,16.7644187 L287.539072,31.802451 C287.84252,32.9426795 288.151382,34.0506207 288.465669,35.126308 C288.779954,36.2019951 289.077979,37.288423 289.359753,38.385624 C289.53315,37.3099367 289.744478,36.239644 289.993738,35.1747137 C290.243,34.1097833 290.508513,32.985707 290.790286,31.802451 L294.366622,16.7966891 C294.474996,16.2803593 294.783857,15.8608476 295.293218,15.5381414 C295.802576,15.2154352 296.382371,15.0540846 297.032617,15.0540846 L304.705481,15.0540846 L294.236573,48.5185471 L286.043514,48.5185471 C285.610017,48.5185471 285.24155,48.3894665 284.938101,48.1313016 C284.634653,47.8731366 284.396233,47.4428682 284.222834,46.8404833 L279.411038,30.1566578 C279.194289,29.4036767 278.988381,28.6614636 278.793307,27.9299963 C278.598233,27.198529 278.424836,26.4670727 278.273112,25.7356054 C278.121388,26.4885864 277.953411,27.2361778 277.769175,27.978402 C277.584938,28.7206262 277.373612,29.4682177 277.135188,30.2211987 L272.258367,46.8404833 C271.933244,47.959198 271.217984,48.5185471 270.112567,48.5185471 L262.309653,48.5185471 L251.840745,15.0540846 L251.840745,15.0540846 Z M321.236098,14.5377572 C323.468608,14.5377572 325.511434,14.881972 327.364635,15.5704119 C329.217836,16.2588517 330.810916,17.2592258 332.14392,18.5715642 C333.476924,19.8839026 334.517302,21.492031 335.265085,23.3959974 C336.012868,25.2999638 336.386754,27.4566843 336.386754,29.8662237 C336.386754,30.6192047 336.354243,31.2323373 336.289218,31.7056397 C336.224193,32.1789421 336.104983,32.5554269 335.931584,32.8351056 C335.758185,33.1147842 335.525183,33.308405 335.232573,33.4159738 C334.939962,33.5235425 334.566076,33.5773261 334.110905,33.5773261 L314.668646,33.5773261 C314.993768,36.3741129 315.849913,38.4017529 317.237105,39.6603069 C318.624296,40.918861 320.412445,41.5481286 322.601607,41.5481286 C323.77205,41.5481286 324.779916,41.4082914 325.625236,41.1286127 C326.470556,40.848934 327.223747,40.5369893 327.88483,40.1927695 C328.545913,39.8485495 329.152801,39.536605 329.705509,39.2569263 C330.258218,38.9772476 330.838012,38.8374103 331.444909,38.8374103 C332.246879,38.8374103 332.853766,39.1278416 333.265588,39.7087127 L336.19168,43.2907333 C335.151288,44.4739891 334.02963,45.4367148 332.826674,46.178939 C331.623719,46.9211632 330.388271,47.5020255 329.120291,47.9215436 C327.852311,48.3410616 326.58435,48.6314928 325.316371,48.7928459 C324.04839,48.954199 322.840036,49.0348743 321.691268,49.0348743 C319.328707,49.0348743 317.112485,48.6530111 315.042535,47.8892731 C312.972586,47.1255352 311.162761,45.9907022 309.613008,44.4847401 C308.063255,42.9787779 306.838644,41.1071102 305.939136,38.8696808 C305.039629,36.6322513 304.589883,34.0291273 304.589883,31.0602305 C304.589883,28.8228011 304.974606,26.703729 305.744063,24.7029508 C306.513522,22.7021726 307.618923,20.9488287 309.060302,19.4428665 C310.50168,17.9369045 312.246481,16.7429095 314.294755,15.8608459 C316.343031,14.9787824 318.656788,14.5377572 321.236098,14.5377572 L321.236098,14.5377572 Z M321.43117,21.4436348 C319.502107,21.4436348 317.995726,21.9868487 316.911983,23.0732927 C315.828239,24.1597369 315.11298,25.7248383 314.766182,27.768644 L327.348379,27.768644 C327.348379,26.9726356 327.245425,26.1981523 327.039514,25.4451712 C326.833603,24.6921903 326.497647,24.0198958 326.031638,23.4282678 C325.565628,22.8366398 324.953322,22.3579662 324.194702,21.9922325 C323.436082,21.6264989 322.514914,21.4436348 321.43117,21.4436348 L321.43117,21.4436348 Z M340.367685,48.5185471 L340.367685,15.0540846 L346.349918,15.0540846 C346.84844,15.0540846 347.265675,15.0971114 347.601635,15.1831664 C347.937596,15.2692214 348.219364,15.4036803 348.446951,15.5865471 C348.674537,15.7694139 348.847933,16.0114399 348.967146,16.3126323 C349.086357,16.6138248 349.189311,16.9795529 349.276011,17.4098278 L349.828717,20.540062 C351.064184,18.6468525 352.451355,17.1516696 353.990271,16.0544687 C355.529187,14.9572677 357.208964,14.4086755 359.029652,14.4086755 C360.568567,14.4086755 361.804016,14.7744037 362.736036,15.505871 L361.43555,22.8635348 C361.348851,23.3153234 361.175454,23.6326464 360.915356,23.8155133 C360.655257,23.9983801 360.308464,24.0898121 359.874968,24.0898121 C359.506495,24.0898121 359.073004,24.0414069 358.574482,23.9445951 C358.07596,23.8477832 357.447398,23.799378 356.688779,23.799378 C354.044444,23.799378 351.963689,25.1977504 350.446448,27.9945372 L350.446448,48.5185471 L340.367685,48.5185471 L340.367685,48.5185471 Z M111.902233,48.5185471 L111.902233,15.0540846 L117.884466,15.0540846 C118.382988,15.0540846 118.800223,15.0971114 119.136184,15.1831664 C119.472143,15.2692214 119.753913,15.4036803 119.981499,15.5865471 C120.209086,15.7694139 120.382482,16.0114399 120.501693,16.3126323 C120.620906,16.6138248 120.723859,16.9795529 120.810558,17.4098278 L121.363266,20.540062 C122.598732,18.6468525 123.985904,17.1516696 125.524818,16.0544687 C127.063734,14.9572677 128.743511,14.4086755 130.5642,14.4086755 C132.103116,14.4086755 133.338565,14.7744037 134.270584,15.505871 L132.970098,22.8635348 C132.883399,23.3153234 132.710003,23.6326464 132.449905,23.8155133 C132.189806,23.9983801 131.843013,24.0898121 131.409516,24.0898121 C131.041043,24.0898121 130.607553,24.0414069 130.10903,23.9445951 C129.610508,23.8477832 128.981947,23.799378 128.223326,23.799378 C125.578993,23.799378 123.498236,25.1977504 121.980995,27.9945372 L121.980995,48.5185471 L111.902233,48.5185471 L111.902233,48.5185471 Z M136.135218,48.7359928 L136.135218,15.1824912 L136.135218,13.2697796 C136.135218,11.346252 136.445501,9.60645825 137.066074,8.05034605 C137.686649,6.49423385 138.579391,5.16507461 139.744329,4.06282847 C140.909266,2.96058234 142.330034,2.1068947 144.006673,1.50173995 C145.683312,0.896585211 147.588554,0.594012378 149.722458,0.594012378 C150.549891,0.594012378 151.311988,0.642640154 152.008773,0.739897167 C152.705558,0.837154179 153.434994,0.993843682 154.197103,1.20997038 L154.001133,6.10521552 C153.979358,6.45101823 153.892262,6.7373818 153.73984,6.96431483 C153.587418,7.19124786 153.386006,7.37495281 153.135599,7.51543515 C152.885192,7.6559175 152.618458,7.75857614 152.335389,7.82341415 C152.052321,7.88825216 151.769256,7.92067068 151.486186,7.92067068 C150.593431,7.92067068 149.798673,8.00712006 149.101887,8.18002142 C148.405102,8.35292277 147.822642,8.66089868 147.35449,9.10395841 C146.886338,9.54701813 146.532506,10.1305515 146.292986,10.8545759 C146.053468,11.5786003 145.933709,12.4917219 145.933709,13.593968 L145.933709,15.1824912 L153.870487,15.1824912 L153.870487,22.0552858 L146.260326,22.0552858 L146.260326,48.7359928 L136.135218,48.7359928 L136.135218,48.7359928 Z" id="interfacewerk-13"></path>
                                </g>
                                <g id="Caret" transform="translate(391.856702, 15.009876)">
                                    <path d="M0.0170708656,16.7886248 C0.585718335,17.2464752 1.32307852,17.8270454 2.26038966,19.361703 L9.78738912,32.0472108 C10.0941463,32.5999488 10.4327021,32.994249 10.9215964,33.2134382 C11.4104907,33.4326275 11.9904448,33.5422204 12.6614762,33.5422204 L21.5458678,33.5422204 L13.1484313,19.3617029 C12.5198576,18.3012858 10.9155822,16.7916899 10.9081968,16.7867641 C10.9155822,16.7818382 0.0180040579,16.7880033 0.0170708656,16.7886248 L0.0170708656,16.7886248 Z" id="Path-Copy" fill="url(#linearGradient-1)"></path>
                                    <path d="M0.0170708656,16.7886248 C1.10267659,16.7867641 10.9155822,16.7916899 10.9081968,16.7867641 C10.9155822,16.7818382 12.5198576,15.2722425 13.1484313,14.2118252 L21.5458678,0.0313077807 L12.6614762,0.0313077807 C11.9904448,0.0313077807 11.4104907,0.140900737 10.9215964,0.36008994 C10.4327021,0.579279142 10.0941463,0.973579429 9.78738912,1.52631742 L2.26038966,14.2118251 C1.32307852,15.7464827 0.0180040579,16.7880033 0.0170708656,16.7886248 L0.0170708656,16.7886248 Z" id="Path-Copy-2" fill="url(#linearGradient-2)"></path>
                                </g>
                            </g>
                        </g>
                    </g>
                </g>
                <path d="M11.3762401,76.0528846 C11.153679,76.0528846 11.0252803,75.9416057 10.9910401,75.7190446 L10.8626401,73.7031646 C10.2976773,74.4735684 9.63856388,75.0856023 8.88528011,75.5392846 C8.13199633,75.9929669 7.28456479,76.2198046 6.34296008,76.2198046 C4.76791218,76.2198046 3.54384441,75.67625 2.67072003,74.5891246 C1.79759566,73.5019991 1.36104002,71.8713354 1.36104002,69.6970845 C1.36104002,68.7640399 1.4830188,67.8930686 1.72698002,67.0841445 C1.97094124,66.2752205 2.32831767,65.5733075 2.79912003,64.9783845 C3.26992239,64.3834615 3.8498566,63.9148062 4.53894005,63.5724045 C5.22802351,63.2300028 6.02195558,63.0588045 6.92076008,63.0588045 C7.78532442,63.0588045 8.53431693,63.2193029 9.16776011,63.5403045 C9.80120328,63.8613061 10.3533178,64.3299614 10.8241201,64.9462845 L10.8241201,57.3706844 L12.0439201,57.3706844 L12.0439201,76.0528846 L11.3762401,76.0528846 Z M6.68964008,75.2311246 C7.52852428,75.2311246 8.29249665,75.0128468 8.98158011,74.5762846 C9.67066356,74.1397224 10.2848374,73.5276885 10.8241201,72.7401646 L10.8241201,66.0376845 C10.3361977,65.3015208 9.79478309,64.781506 9.19986011,64.4776245 C8.60493713,64.173743 7.9265639,64.0218045 7.16472009,64.0218045 C6.41143631,64.0218045 5.75232289,64.1587631 5.18736006,64.4326845 C4.62239723,64.7066059 4.14946195,65.093942 3.76854004,65.5947045 C3.38761814,66.095467 3.100861,66.694661 2.90826003,67.3923045 C2.71565907,68.089948 2.61936003,68.8582003 2.61936003,69.6970845 C2.61936003,71.5974141 2.96817655,72.9948201 3.66582004,73.8893446 C4.36346354,74.7838691 5.37139347,75.2311246 6.68964008,75.2311246 L6.68964008,75.2311246 Z M21.2502003,63.0716445 C21.9692439,63.0716445 22.6369172,63.1957632 23.2532403,63.4440045 C23.8695634,63.6922457 24.404558,64.0539021 24.8582403,64.5289845 C25.3119226,65.0040669 25.669299,65.588281 25.9303803,66.2816445 C26.1914616,66.975008 26.3220003,67.77108 26.3220003,68.6698845 C26.3220003,68.8582055 26.2963206,68.9866042 26.2449603,69.0550845 C26.1936001,69.1235649 26.1080009,69.1578045 25.9881603,69.1578045 L16.6920002,69.1578045 L16.6920002,69.4017645 C16.6920002,70.3604893 16.8032791,71.2036409 17.0258402,71.9312446 C17.2484013,72.6588482 17.5651182,73.2687421 17.9760002,73.7609446 C18.3868823,74.2531471 18.8833573,74.6233634 19.4654402,74.8716046 C20.0475231,75.1198458 20.6980767,75.2439646 21.4171203,75.2439646 C22.0591235,75.2439646 22.6155179,75.1733453 23.0863203,75.0321046 C23.5571226,74.8908639 23.9530187,74.7325055 24.2740203,74.5570246 C24.5950219,74.3815437 24.8496794,74.2231853 25.0380003,74.0819446 C25.2263212,73.9407039 25.3632799,73.8700846 25.4488803,73.8700846 C25.5601609,73.8700846 25.64576,73.9128842 25.7056803,73.9984846 L26.0395203,74.4093646 C25.8340793,74.6661659 25.562302,74.9058435 25.2241803,75.1284046 C24.8860586,75.3509657 24.5094224,75.5414238 24.0942603,75.6997846 C23.6790982,75.8581454 23.2339827,75.9844041 22.7589003,76.0785646 C22.2838179,76.1727251 21.8066027,76.2198046 21.3272403,76.2198046 C20.4541159,76.2198046 19.6580438,76.0678661 18.9390002,75.7639846 C18.2199566,75.4601031 17.6036428,75.0171275 17.0900402,74.4350446 C16.5764376,73.8529617 16.1805416,73.1403488 15.9023402,72.2971846 C15.6241388,71.4540203 15.4850402,70.48889 15.4850402,69.4017645 C15.4850402,68.4858399 15.6155789,67.6405484 15.8766602,66.8658645 C16.1377415,66.0911806 16.5143777,65.4235073 17.0065802,64.8628245 C17.4987827,64.3021417 18.1022566,63.8634461 18.8170202,63.5467245 C19.5317838,63.2300029 20.3428357,63.0716445 21.2502003,63.0716445 L21.2502003,63.0716445 Z M21.2630403,63.9832845 C20.6039169,63.9832845 20.0132828,64.0860034 19.4911202,64.2914445 C18.9689576,64.4968855 18.5174221,64.7922026 18.1365002,65.1774045 C17.7555783,65.5626064 17.4474214,66.0248418 17.2120202,66.5641245 C16.976619,67.1034072 16.8204006,67.7068812 16.7433602,68.3745645 L25.2177603,68.3745645 C25.2177603,67.6897611 25.1214613,67.0755872 24.9288603,66.5320245 C24.7362593,65.9884618 24.464482,65.5283664 24.1135203,65.1517245 C23.7625585,64.7750826 23.3452627,64.4861855 22.8616203,64.2850245 C22.3779778,64.0838635 21.8451232,63.9832845 21.2630403,63.9832845 L21.2630403,63.9832845 Z M36.6710404,64.8564045 C36.6025601,64.9762451 36.5041211,65.0361645 36.3757204,65.0361645 C36.28156,65.0361645 36.1617212,64.982665 36.0162004,64.8756645 C35.8706797,64.7686639 35.6759416,64.6488251 35.4319804,64.5161445 C35.1880192,64.3834638 34.8862822,64.263625 34.5267604,64.1566245 C34.1672386,64.0496239 33.730683,63.9961245 33.2170804,63.9961245 C32.7548381,63.9961245 32.3332623,64.0624638 31.9523404,64.1951445 C31.5714185,64.3278251 31.2461417,64.5054434 30.9765004,64.7280045 C30.706859,64.9505656 30.4992811,65.209503 30.3537604,65.5048245 C30.2082396,65.800146 30.1354804,66.1104429 30.1354804,66.4357245 C30.1354804,66.8380465 30.2381993,67.1718832 30.4436404,67.4372445 C30.6490814,67.7026058 30.9165787,67.9294436 31.2461404,68.1177645 C31.575702,68.3060855 31.9544782,68.4687238 32.3824804,68.6056845 C32.8104825,68.7426452 33.2448982,68.8796038 33.6857404,69.0165645 C34.1265826,69.1535252 34.5609983,69.3054637 34.9890004,69.4723845 C35.4170026,69.6393054 35.7957788,69.8468833 36.1253404,70.0951245 C36.4549021,70.3433658 36.7223994,70.6472428 36.9278404,71.0067646 C37.1332815,71.3662864 37.2360004,71.802842 37.2360004,72.3164446 C37.2360004,72.8728474 37.1375614,73.3907222 36.9406804,73.8700846 C36.7437995,74.349447 36.4549023,74.7646028 36.0739804,75.1155646 C35.6930585,75.4665264 35.2244032,75.7447236 34.6680004,75.9501646 C34.1115976,76.1556056 33.473884,76.2583246 32.7548404,76.2583246 C31.8560359,76.2583246 31.0813636,76.114946 30.4308004,75.8281846 C29.7802371,75.5414232 29.1981629,75.1669269 28.6845603,74.7046846 L28.9670403,74.2681246 C29.0098406,74.1996443 29.0590601,74.1482848 29.1147003,74.1140446 C29.1703406,74.0798044 29.2452399,74.0626846 29.3394003,74.0626846 C29.4506809,74.0626846 29.5854996,74.1311639 29.7438604,74.2681246 C29.9022211,74.4050853 30.114079,74.5527438 30.3794404,74.7111046 C30.6448017,74.8694654 30.9722184,75.0171239 31.3617004,75.1540846 C31.7511823,75.2910453 32.2326775,75.3595246 32.8062004,75.3595246 C33.3454831,75.3595246 33.8205583,75.2846254 34.2314404,75.1348246 C34.6423225,74.9850239 34.984719,74.7817259 35.2586404,74.5249246 C35.5325618,74.2681233 35.7401397,73.9663863 35.8813804,73.6197046 C36.0226211,73.2730228 36.0932404,72.9070865 36.0932404,72.5218846 C36.0932404,72.0938824 35.9905215,71.738646 35.7850804,71.4561646 C35.5796394,71.1736831 35.3100021,70.9340055 34.9761604,70.7371246 C34.6423187,70.5402436 34.2635425,70.3733252 33.8398204,70.2363645 C33.4160983,70.0994039 32.9816826,69.9624452 32.5365604,69.8254845 C32.0914382,69.6885239 31.6570225,69.5387254 31.2333004,69.3760845 C30.8095782,69.2134437 30.430802,69.0080058 30.0969604,68.7597645 C29.7631187,68.5115233 29.4934814,68.2097863 29.2880403,67.8545445 C29.0825993,67.4993027 28.9798803,67.0563272 28.9798803,66.5256045 C28.9798803,66.0719222 29.0783194,65.6353666 29.2752003,65.2159245 C29.4720813,64.7964824 29.7524185,64.4284061 30.1162204,64.1116845 C30.4800222,63.7949629 30.9229978,63.5424454 31.4451604,63.3541245 C31.967323,63.1658035 32.5536771,63.0716445 33.2042404,63.0716445 C33.9832043,63.0716445 34.6744174,63.1829233 35.2779004,63.4054845 C35.8813834,63.6280456 36.431358,63.9704422 36.9278404,64.4326845 L36.6710404,64.8564045 Z M41.9226005,63.2770845 L41.9226005,76.0528846 L40.7028005,76.0528846 L40.7028005,63.2770845 L41.9226005,63.2770845 Z M42.4490405,58.8729644 C42.4490405,59.0270452 42.4169408,59.1704238 42.3527405,59.3031044 C42.2885402,59.4357851 42.205081,59.5534839 42.1023605,59.6562044 C41.99964,59.7589249 41.8798012,59.8402441 41.7428405,59.9001644 C41.6058798,59.9600847 41.4603613,59.9900444 41.3062805,59.9900444 C41.1521997,59.9900444 41.0066812,59.9600847 40.8697205,59.9001644 C40.7327598,59.8402441 40.612921,59.7589249 40.5102005,59.6562044 C40.40748,59.5534839 40.3261608,59.4357851 40.2662405,59.3031044 C40.2063202,59.1704238 40.1763605,59.0270452 40.1763605,58.8729644 C40.1763605,58.7188836 40.2063202,58.5712251 40.2662405,58.4299844 C40.3261608,58.2887437 40.40748,58.1667649 40.5102005,58.0640444 C40.612921,57.9613239 40.7327598,57.8800047 40.8697205,57.8200844 C41.0066812,57.7601641 41.1521997,57.7302044 41.3062805,57.7302044 C41.4603613,57.7302044 41.6058798,57.7601641 41.7428405,57.8200844 C41.8798012,57.8800047 41.99964,57.9613239 42.1023605,58.0640444 C42.205081,58.1667649 42.2885402,58.2887437 42.3527405,58.4299844 C42.4169408,58.5712251 42.4490405,58.7188836 42.4490405,58.8729644 L42.4490405,58.8729644 Z M50.4483606,63.0588045 C51.0133234,63.0588045 51.5311983,63.1272838 52.0020006,63.2642445 C52.472803,63.4012051 52.9007987,63.5938032 53.2860006,63.8420445 L56.5602007,63.8420445 L56.5602007,64.2657645 C56.5602007,64.4540854 56.4403619,64.5696443 56.2006807,64.6124445 L54.2490006,64.7536845 C54.4886818,65.0789661 54.67272,65.4449025 54.8011207,65.8515045 C54.9295213,66.2581065 54.9937207,66.6925222 54.9937207,67.1547645 C54.9937207,67.7710876 54.8845817,68.329622 54.6663006,68.8303845 C54.4480196,69.331147 54.1398626,69.7591428 53.7418206,70.1143845 C53.3437786,70.4696263 52.8644234,70.7456836 52.3037406,70.9425646 C51.7430578,71.1394455 51.124604,71.2378846 50.4483606,71.2378846 C49.7121969,71.2378846 49.0488035,71.1266057 48.4581606,70.9040446 C48.0986388,71.1180456 47.8140216,71.3641432 47.6043006,71.6423446 C47.3945795,71.920546 47.2897206,72.1923232 47.2897206,72.4576846 C47.2897206,72.8257664 47.4202593,73.1082436 47.6813406,73.3051246 C47.9424219,73.5020056 48.2848185,73.6453841 48.7085406,73.7352646 C49.1322627,73.825145 49.6158979,73.8829245 50.1594606,73.9086046 C50.7030233,73.9342847 51.2572778,73.9621044 51.8222406,73.9920646 C52.3872034,74.0220247 52.9414579,74.0755242 53.4850206,74.1525646 C54.0285834,74.229605 54.5122185,74.3644236 54.9359407,74.5570246 C55.3596628,74.7496256 55.7020594,75.0192629 55.9631407,75.3659446 C56.224222,75.7126263 56.3547607,76.1727217 56.3547607,76.7462446 C56.3547607,77.2769673 56.222082,77.7862822 55.9567207,78.2742046 C55.6913593,78.7621271 55.3083032,79.1944028 54.8075407,79.5710447 C54.3067781,79.9476865 53.7011642,80.2494235 52.9906806,80.4762647 C52.2801971,80.7031058 51.484125,80.8165247 50.6024406,80.8165247 C49.7036361,80.8165247 48.916124,80.7245056 48.2398806,80.5404647 C47.5636372,80.3564237 46.9965428,80.1081862 46.5385806,79.7957447 C46.0806183,79.4833031 45.7360817,79.1216467 45.5049605,78.7107646 C45.2738394,78.2998826 45.1582805,77.8633269 45.1582805,77.4010846 C45.1582805,76.7248412 45.3808383,76.144907 45.8259605,75.6612646 C46.2710828,75.1776222 46.8788367,74.798846 47.6492406,74.5249246 C47.2126784,74.3794039 46.8660018,74.169686 46.6092006,73.8957646 C46.3523993,73.6218432 46.2240005,73.240927 46.2240005,72.7530046 C46.2240005,72.5732437 46.2582402,72.3849256 46.3267206,72.1880446 C46.3952009,71.9911636 46.4979199,71.7964255 46.6348806,71.6038246 C46.7718412,71.4112236 46.9387596,71.2293254 47.1356406,71.0581246 C47.3325215,70.8869237 47.5550793,70.7328452 47.8033206,70.5958846 C47.1955575,70.2449228 46.7226222,69.7784075 46.3845006,69.1963245 C46.0463789,68.6142416 45.8773205,67.9337284 45.8773205,67.1547645 C45.8773205,66.5384414 45.9864595,65.979907 46.2047405,65.4791445 C46.4230216,64.978382 46.7333185,64.5482463 47.1356406,64.1887245 C47.5379626,63.8292027 48.0194578,63.5510055 48.5801406,63.3541245 C49.1408234,63.1572435 49.7635572,63.0588045 50.4483606,63.0588045 L50.4483606,63.0588045 Z M55.2248407,76.9131646 C55.2248407,76.5108426 55.1199817,76.1877058 54.9102607,75.9437446 C54.7005396,75.6997834 54.4202024,75.5093253 54.0692406,75.3723646 C53.7182789,75.2354039 53.3116829,75.1412449 52.8494406,75.0898846 C52.3871983,75.0385243 51.9078431,74.9978648 51.4113606,74.9679046 C50.9148781,74.9379445 50.4141231,74.9101247 49.9090806,74.8844446 C49.4040381,74.8587645 48.9289628,74.807405 48.4838406,74.7303646 C48.1585589,74.8587652 47.8589619,75.0085637 47.5850406,75.1797646 C47.3111192,75.3509655 47.0757215,75.5414236 46.8788406,75.7511446 C46.6819596,75.9608657 46.5278811,76.1919834 46.4166006,76.4445046 C46.30532,76.6970259 46.2496805,76.9688032 46.2496805,77.2598446 C46.2496805,77.6364865 46.3459796,77.985303 46.5385806,78.3063046 C46.7311815,78.6273063 47.0136587,78.9055035 47.3860206,79.1409047 C47.7583824,79.3763058 48.2141979,79.562484 48.7534806,79.6994447 C49.2927633,79.8364053 49.9133571,79.9048847 50.6152806,79.9048847 C51.2658439,79.9048847 51.8714578,79.8321254 52.4321406,79.6866047 C52.9928234,79.5410839 53.4807386,79.335646 53.8959006,79.0702847 C54.3110627,78.8049233 54.6363395,78.4882065 54.8717407,78.1201246 C55.1071418,77.7520428 55.2248407,77.3497268 55.2248407,76.9131646 L55.2248407,76.9131646 Z M50.4483606,70.4032845 C50.9962033,70.4032845 51.4841185,70.3241053 51.9121206,70.1657445 C52.3401228,70.0073838 52.6996392,69.786966 52.9906806,69.5044845 C53.2817221,69.2220031 53.5042799,68.8838865 53.6583606,68.4901245 C53.8124414,68.0963626 53.8894806,67.6598069 53.8894806,67.1804445 C53.8894806,66.7010821 53.8103014,66.2623865 53.6519406,65.8643445 C53.4935798,65.4663025 53.2667421,65.1260459 52.9714206,64.8435645 C52.6760991,64.5610831 52.3165827,64.3428052 51.8928606,64.1887245 C51.4691385,64.0346437 50.9876433,63.9576045 50.4483606,63.9576045 C49.9090779,63.9576045 49.4275827,64.0346437 49.0038606,64.1887245 C48.5801385,64.3428052 48.220622,64.5610831 47.9253006,64.8435645 C47.6299791,65.1260459 47.4052813,65.4663025 47.2512006,65.8643445 C47.0971198,66.2623865 47.0200806,66.7010821 47.0200806,67.1804445 C47.0200806,67.6598069 47.0971198,68.0963626 47.2512006,68.4901245 C47.4052813,68.8838865 47.6299791,69.2220031 47.9253006,69.5044845 C48.220622,69.786966 48.5801385,70.0073838 49.0038606,70.1657445 C49.4275827,70.3241053 49.9090779,70.4032845 50.4483606,70.4032845 L50.4483606,70.4032845 Z M59.3850007,76.0528846 L59.3850007,63.2770845 L60.0655207,63.2770845 C60.2795218,63.2770845 60.4036405,63.3840834 60.4378807,63.5980845 L60.5534407,65.5240845 C61.1440837,64.7793608 61.8245969,64.1844467 62.5950007,63.7393245 C63.3654046,63.2942022 64.229956,63.0716445 65.1886808,63.0716445 C65.8906043,63.0716445 66.5090581,63.1829233 67.0440608,63.4054845 C67.5790635,63.6280456 68.0220391,63.9490424 68.3730008,64.3684845 C68.7239626,64.7879266 68.9893199,65.2929615 69.1690808,65.8836045 C69.3488417,66.4742475 69.4387208,67.1419208 69.4387208,67.8866445 L69.4387208,76.0528846 L68.2060808,76.0528846 L68.2060808,67.8866445 C68.2060808,66.6882385 67.9321635,65.7487879 67.3843208,65.0682645 C66.8364781,64.3877411 66.0018864,64.0474845 64.8805208,64.0474845 C64.0416366,64.0474845 63.2626843,64.2593424 62.5436407,64.6830645 C61.8245971,65.1067866 61.1826036,65.6952807 60.6176407,66.4485645 L60.6176407,76.0528846 L59.3850007,76.0528846 Z M74.8700409,63.2770845 L74.8700409,76.0528846 L73.6502409,76.0528846 L73.6502409,63.2770845 L74.8700409,63.2770845 Z M75.3964809,58.8729644 C75.3964809,59.0270452 75.3643812,59.1704238 75.3001809,59.3031044 C75.2359806,59.4357851 75.1525214,59.5534839 75.0498009,59.6562044 C74.9470804,59.7589249 74.8272416,59.8402441 74.6902809,59.9001644 C74.5533202,59.9600847 74.4078017,59.9900444 74.2537209,59.9900444 C74.0996401,59.9900444 73.9541216,59.9600847 73.8171609,59.9001644 C73.6802002,59.8402441 73.5603614,59.7589249 73.4576409,59.6562044 C73.3549204,59.5534839 73.2736012,59.4357851 73.2136809,59.3031044 C73.1537606,59.1704238 73.1238009,59.0270452 73.1238009,58.8729644 C73.1238009,58.7188836 73.1537606,58.5712251 73.2136809,58.4299844 C73.2736012,58.2887437 73.3549204,58.1667649 73.4576409,58.0640444 C73.5603614,57.9613239 73.6802002,57.8800047 73.8171609,57.8200844 C73.9541216,57.7601641 74.0996401,57.7302044 74.2537209,57.7302044 C74.4078017,57.7302044 74.5533202,57.7601641 74.6902809,57.8200844 C74.8272416,57.8800047 74.9470804,57.9613239 75.0498009,58.0640444 C75.1525214,58.1667649 75.2359806,58.2887437 75.3001809,58.4299844 C75.3643812,58.5712251 75.3964809,58.7188836 75.3964809,58.8729644 L75.3964809,58.8729644 Z M79.2228009,76.0528846 L79.2228009,63.2770845 L79.9033209,63.2770845 C80.117322,63.2770845 80.2414408,63.3840834 80.275681,63.5980845 L80.391241,65.5240845 C80.9818839,64.7793608 81.6623971,64.1844467 82.432801,63.7393245 C83.2032048,63.2942022 84.0677562,63.0716445 85.026481,63.0716445 C85.7284045,63.0716445 86.3468584,63.1829233 86.881861,63.4054845 C87.4168637,63.6280456 87.8598393,63.9490424 88.210801,64.3684845 C88.5617628,64.7879266 88.8271202,65.2929615 89.0068811,65.8836045 C89.186642,66.4742475 89.2765211,67.1419208 89.2765211,67.8866445 L89.2765211,76.0528846 L88.043881,76.0528846 L88.043881,67.8866445 C88.043881,66.6882385 87.7699638,65.7487879 87.222121,65.0682645 C86.6742783,64.3877411 85.8396866,64.0474845 84.718321,64.0474845 C83.8794368,64.0474845 83.1004846,64.2593424 82.381441,64.6830645 C81.6623974,65.1067866 81.0204038,65.6952807 80.455441,66.4485645 L80.455441,76.0528846 L79.2228009,76.0528846 Z M97.5198012,63.0588045 C98.084764,63.0588045 98.6026388,63.1272838 99.0734412,63.2642445 C99.5442435,63.4012051 99.9722393,63.5938032 100.357441,63.8420445 L103.631641,63.8420445 L103.631641,64.2657645 C103.631641,64.4540854 103.511802,64.5696443 103.272121,64.6124445 L101.320441,64.7536845 C101.560122,65.0789661 101.744161,65.4449025 101.872561,65.8515045 C102.000962,66.2581065 102.065161,66.6925222 102.065161,67.1547645 C102.065161,67.7710876 101.956022,68.329622 101.737741,68.8303845 C101.51946,69.331147 101.211303,69.7591428 100.813261,70.1143845 C100.415219,70.4696263 99.935864,70.7456836 99.3751812,70.9425646 C98.8144984,71.1394455 98.1960445,71.2378846 97.5198012,71.2378846 C96.7836375,71.2378846 96.1202441,71.1266057 95.5296011,70.9040446 C95.1700793,71.1180456 94.8854622,71.3641432 94.6757411,71.6423446 C94.4660201,71.920546 94.3611611,72.1923232 94.3611611,72.4576846 C94.3611611,72.8257664 94.4916998,73.1082436 94.7527811,73.3051246 C95.0138624,73.5020056 95.356259,73.6453841 95.7799811,73.7352646 C96.2037033,73.825145 96.6873384,73.8829245 97.2309012,73.9086046 C97.7744639,73.9342847 98.3287183,73.9621044 98.8936812,73.9920646 C99.458644,74.0220247 100.012898,74.0755242 100.556461,74.1525646 C101.100024,74.229605 101.583659,74.3644236 102.007381,74.5570246 C102.431103,74.7496256 102.7735,75.0192629 103.034581,75.3659446 C103.295663,75.7126263 103.426201,76.1727217 103.426201,76.7462446 C103.426201,77.2769673 103.293523,77.7862822 103.028161,78.2742046 C102.7628,78.7621271 102.379744,79.1944028 101.878981,79.5710447 C101.378219,79.9476865 100.772605,80.2494235 100.062121,80.4762647 C99.3516376,80.7031058 98.5555656,80.8165247 97.6738812,80.8165247 C96.7750767,80.8165247 95.9875645,80.7245056 95.3113211,80.5404647 C94.6350777,80.3564237 94.0679834,80.1081862 93.6100211,79.7957447 C93.1520588,79.4833031 92.8075223,79.1216467 92.5764011,78.7107646 C92.3452799,78.2998826 92.2297211,77.8633269 92.2297211,77.4010846 C92.2297211,76.7248412 92.4522789,76.144907 92.8974011,75.6612646 C93.3425233,75.1776222 93.9502773,74.798846 94.7206811,74.5249246 C94.2841189,74.3794039 93.9374424,74.169686 93.6806411,73.8957646 C93.4238398,73.6218432 93.2954411,73.240927 93.2954411,72.7530046 C93.2954411,72.5732437 93.3296808,72.3849256 93.3981611,72.1880446 C93.4666415,71.9911636 93.5693604,71.7964255 93.7063211,71.6038246 C93.8432818,71.4112236 94.0102001,71.2293254 94.2070811,71.0581246 C94.4039621,70.8869237 94.6265199,70.7328452 94.8747611,70.5958846 C94.2669981,70.2449228 93.7940628,69.7784075 93.4559411,69.1963245 C93.1178194,68.6142416 92.9487611,67.9337284 92.9487611,67.1547645 C92.9487611,66.5384414 93.0579,65.979907 93.2761811,65.4791445 C93.4944622,64.978382 93.8047591,64.5482463 94.2070811,64.1887245 C94.6094031,63.8292027 95.0908983,63.5510055 95.6515811,63.3541245 C96.2122639,63.1572435 96.8349977,63.0588045 97.5198012,63.0588045 L97.5198012,63.0588045 Z M102.296281,76.9131646 C102.296281,76.5108426 102.191422,76.1877058 101.981701,75.9437446 C101.77198,75.6997834 101.491643,75.5093253 101.140681,75.3723646 C100.789719,75.2354039 100.383124,75.1412449 99.9208812,75.0898846 C99.4586389,75.0385243 98.9792837,74.9978648 98.4828012,74.9679046 C97.9863187,74.9379445 97.4855637,74.9101247 96.9805212,74.8844446 C96.4754786,74.8587645 96.0004034,74.807405 95.5552811,74.7303646 C95.2299995,74.8587652 94.9304025,75.0085637 94.6564811,75.1797646 C94.3825598,75.3509655 94.1471621,75.5414236 93.9502811,75.7511446 C93.7534001,75.9608657 93.5993217,76.1919834 93.4880411,76.4445046 C93.3767606,76.6970259 93.3211211,76.9688032 93.3211211,77.2598446 C93.3211211,77.6364865 93.4174201,77.985303 93.6100211,78.3063046 C93.8026221,78.6273063 94.0850993,78.9055035 94.4574611,79.1409047 C94.829823,79.3763058 95.2856384,79.562484 95.8249211,79.6994447 C96.3642038,79.8364053 96.9847976,79.9048847 97.6867212,79.9048847 C98.3372844,79.9048847 98.9428984,79.8321254 99.5035812,79.6866047 C100.064264,79.5410839 100.552179,79.335646 100.967341,79.0702847 C101.382503,78.8049233 101.70778,78.4882065 101.943181,78.1201246 C102.178582,77.7520428 102.296281,77.3497268 102.296281,76.9131646 L102.296281,76.9131646 Z M97.5198012,70.4032845 C98.0676439,70.4032845 98.555559,70.3241053 98.9835612,70.1657445 C99.4115633,70.0073838 99.7710797,69.786966 100.062121,69.5044845 C100.353163,69.2220031 100.57572,68.8838865 100.729801,68.4901245 C100.883882,68.0963626 100.960921,67.6598069 100.960921,67.1804445 C100.960921,66.7010821 100.881742,66.2623865 100.723381,65.8643445 C100.56502,65.4663025 100.338183,65.1260459 100.042861,64.8435645 C99.7475397,64.5610831 99.3880233,64.3428052 98.9643012,64.1887245 C98.5405791,64.0346437 98.0590839,63.9576045 97.5198012,63.9576045 C96.9805185,63.9576045 96.4990233,64.0346437 96.0753011,64.1887245 C95.651579,64.3428052 95.2920626,64.5610831 94.9967411,64.8435645 C94.7014196,65.1260459 94.4767219,65.4663025 94.3226411,65.8643445 C94.1685603,66.2623865 94.0915211,66.7010821 94.0915211,67.1804445 C94.0915211,67.6598069 94.1685603,68.0963626 94.3226411,68.4901245 C94.4767219,68.8838865 94.7014196,69.2220031 94.9967411,69.5044845 C95.2920626,69.786966 95.651579,70.0073838 96.0753011,70.1657445 C96.4990233,70.3241053 96.9805185,70.4032845 97.5198012,70.4032845 L97.5198012,70.4032845 Z M120.452041,64.8564045 C120.383561,64.9762451 120.285122,65.0361645 120.156721,65.0361645 C120.062561,65.0361645 119.942722,64.982665 119.797201,64.8756645 C119.651681,64.7686639 119.456943,64.6488251 119.212981,64.5161445 C118.96902,64.3834638 118.667283,64.263625 118.307761,64.1566245 C117.94824,64.0496239 117.511684,63.9961245 116.998081,63.9961245 C116.535839,63.9961245 116.114263,64.0624638 115.733341,64.1951445 C115.352419,64.3278251 115.027143,64.5054434 114.757501,64.7280045 C114.48786,64.9505656 114.280282,65.209503 114.134761,65.5048245 C113.989241,65.800146 113.916481,66.1104429 113.916481,66.4357245 C113.916481,66.8380465 114.0192,67.1718832 114.224641,67.4372445 C114.430082,67.7026058 114.69758,67.9294436 115.027141,68.1177645 C115.356703,68.3060855 115.735479,68.4687238 116.163481,68.6056845 C116.591484,68.7426452 117.025899,68.8796038 117.466741,69.0165645 C117.907584,69.1535252 118.341999,69.3054637 118.770001,69.4723845 C119.198004,69.6393054 119.57678,69.8468833 119.906341,70.0951245 C120.235903,70.3433658 120.5034,70.6472428 120.708841,71.0067646 C120.914282,71.3662864 121.017001,71.802842 121.017001,72.3164446 C121.017001,72.8728474 120.918562,73.3907222 120.721681,73.8700846 C120.5248,74.349447 120.235903,74.7646028 119.854981,75.1155646 C119.47406,75.4665264 119.005404,75.7447236 118.449001,75.9501646 C117.892599,76.1556056 117.254885,76.2583246 116.535841,76.2583246 C115.637037,76.2583246 114.862365,76.114946 114.211801,75.8281846 C113.561238,75.5414232 112.979164,75.1669269 112.465561,74.7046846 L112.748041,74.2681246 C112.790842,74.1996443 112.840061,74.1482848 112.895701,74.1140446 C112.951342,74.0798044 113.026241,74.0626846 113.120401,74.0626846 C113.231682,74.0626846 113.366501,74.1311639 113.524861,74.2681246 C113.683222,74.4050853 113.89508,74.5527438 114.160441,74.7111046 C114.425803,74.8694654 114.753219,75.0171239 115.142701,75.1540846 C115.532183,75.2910453 116.013679,75.3595246 116.587201,75.3595246 C117.126484,75.3595246 117.601559,75.2846254 118.012441,75.1348246 C118.423323,74.9850239 118.76572,74.7817259 119.039641,74.5249246 C119.313563,74.2681233 119.521141,73.9663863 119.662381,73.6197046 C119.803622,73.2730228 119.874241,72.9070865 119.874241,72.5218846 C119.874241,72.0938824 119.771522,71.738646 119.566081,71.4561646 C119.36064,71.1736831 119.091003,70.9340055 118.757161,70.7371246 C118.42332,70.5402436 118.044544,70.3733252 117.620821,70.2363645 C117.197099,70.0994039 116.762684,69.9624452 116.317561,69.8254845 C115.872439,69.6885239 115.438023,69.5387254 115.014301,69.3760845 C114.590579,69.2134437 114.211803,69.0080058 113.877961,68.7597645 C113.54412,68.5115233 113.274482,68.2097863 113.069041,67.8545445 C112.8636,67.4993027 112.760881,67.0563272 112.760881,66.5256045 C112.760881,66.0719222 112.85932,65.6353666 113.056201,65.2159245 C113.253082,64.7964824 113.53342,64.4284061 113.897221,64.1116845 C114.261023,63.7949629 114.703999,63.5424454 115.226161,63.3541245 C115.748324,63.1658035 116.334678,63.0716445 116.985241,63.0716445 C117.764205,63.0716445 118.455418,63.1829233 119.058901,63.4054845 C119.662384,63.6280456 120.212359,63.9704422 120.708841,64.4326845 L120.452041,64.8564045 Z M129.401522,63.0716445 C130.317446,63.0716445 131.137058,63.2278629 131.860382,63.5403045 C132.583705,63.852746 133.193599,64.2957216 133.690082,64.8692445 C134.186564,65.4427674 134.56534,66.1339805 134.826422,66.9429045 C135.087503,67.7518286 135.218042,68.6570395 135.218042,69.6585645 C135.218042,70.6600896 135.087503,71.5631605 134.826422,72.3678046 C134.56534,73.1724486 134.186564,73.8615217 133.690082,74.4350446 C133.193599,75.0085675 132.583705,75.4494031 131.860382,75.7575646 C131.137058,76.0657262 130.317446,76.2198046 129.401522,76.2198046 C128.485597,76.2198046 127.665985,76.0657262 126.942662,75.7575646 C126.219338,75.4494031 125.607304,75.0085675 125.106541,74.4350446 C124.605779,73.8615217 124.224863,73.1724486 123.963781,72.3678046 C123.7027,71.5631605 123.572161,70.6600896 123.572161,69.6585645 C123.572161,68.6570395 123.7027,67.7518286 123.963781,66.9429045 C124.224863,66.1339805 124.605779,65.4427674 125.106541,64.8692445 C125.607304,64.2957216 126.219338,63.852746 126.942662,63.5403045 C127.665985,63.2278629 128.485597,63.0716445 129.401522,63.0716445 L129.401522,63.0716445 Z M129.401522,75.2568046 C130.163365,75.2568046 130.828899,75.1262659 131.398142,74.8651846 C131.967384,74.6041033 132.44246,74.229607 132.823382,73.7416846 C133.204303,73.2537621 133.488921,72.665268 133.677242,71.9761846 C133.865563,71.2871011 133.959722,70.5145688 133.959722,69.6585645 C133.959722,68.8111203 133.865563,68.040728 133.677242,67.3473645 C133.488921,66.654001 133.204303,66.061227 132.823382,65.5690245 C132.44246,65.076822 131.967384,64.6980458 131.398142,64.4326845 C130.828899,64.1673231 130.163365,64.0346445 129.401522,64.0346445 C128.639678,64.0346445 127.974144,64.1673231 127.404902,64.4326845 C126.835659,64.6980458 126.360583,65.076822 125.979661,65.5690245 C125.59874,66.061227 125.311982,66.654001 125.119381,67.3473645 C124.926781,68.040728 124.830481,68.8111203 124.830481,69.6585645 C124.830481,70.5145688 124.926781,71.2871011 125.119381,71.9761846 C125.311982,72.665268 125.59874,73.2537621 125.979661,73.7416846 C126.360583,74.229607 126.835659,74.6041033 127.404902,74.8651846 C127.974144,75.1262659 128.639678,75.2568046 129.401522,75.2568046 L129.401522,75.2568046 Z M148.494602,64.5867645 L148.494602,73.2537646 C148.494602,73.6047263 148.539541,73.9064633 148.629422,74.1589846 C148.719302,74.4115059 148.843421,74.6190838 149.001782,74.7817246 C149.160143,74.9443654 149.346321,75.0642042 149.560322,75.1412446 C149.774323,75.218285 150.005441,75.2568046 150.253682,75.2568046 C150.561843,75.2568046 150.827201,75.2118651 151.049762,75.1219846 C151.272323,75.0321042 151.464921,74.9336651 151.627562,74.8266646 C151.790203,74.7196641 151.922881,74.621225 152.025602,74.5313446 C152.128322,74.4414641 152.209642,74.3965246 152.269562,74.3965246 C152.338042,74.3965246 152.406521,74.4393242 152.475002,74.5249246 L152.808842,75.0642046 C152.48356,75.4237264 152.070544,75.7126235 151.569782,75.9309046 C151.069019,76.1491857 150.549004,76.2583246 150.009722,76.2583246 C149.145157,76.2583246 148.471064,76.018647 147.987422,75.5392846 C147.503779,75.0599222 147.261962,74.3194896 147.261962,73.3179646 L147.261962,64.5867645 L140.443922,64.5867645 L140.443922,76.0528846 L139.211282,76.0528846 L139.211282,64.6124445 L137.413682,64.4968845 C137.174,64.4712043 137.054162,64.3642054 137.054162,64.1758845 L137.054162,63.6751245 L139.211282,63.6751245 L139.211282,62.0572844 C139.211282,61.3296808 139.305441,60.6898272 139.493762,60.1377044 C139.682083,59.5855817 139.94744,59.1254863 140.289842,58.7574044 C140.632243,58.3893226 141.043119,58.1132653 141.522482,57.9292244 C142.001844,57.7451835 142.532559,57.6531644 143.114642,57.6531644 C143.380003,57.6531644 143.6475,57.6767042 143.917142,57.7237844 C144.186783,57.7708646 144.428601,57.837204 144.642602,57.9228044 L144.604082,58.5134444 C144.586962,58.5904848 144.550582,58.6397043 144.494942,58.6611044 C144.439301,58.6825045 144.360122,58.6910644 144.257402,58.6867844 C144.154681,58.6825044 144.022003,58.6696645 143.859362,58.6482644 C143.696721,58.6268643 143.508403,58.6161644 143.294402,58.6161644 C142.87496,58.6161644 142.487623,58.6782238 142.132382,58.8023444 C141.77714,58.926465 141.471123,59.125483 141.214322,59.3994044 C140.95752,59.6733258 140.758502,60.0307022 140.617262,60.4715444 C140.476021,60.9123866 140.405402,61.4538012 140.405402,62.0958044 L140.405402,63.6751245 L147.287642,63.6751245 L147.595802,59.0912444 C147.612922,59.014204 147.647161,58.9457247 147.698522,58.8858044 C147.749882,58.8258841 147.822641,58.7959244 147.916802,58.7959244 L148.494602,58.7959244 L148.494602,63.6751245 L152.539202,63.6751245 L152.539202,64.5867645 L148.494602,64.5867645 Z M153.848882,63.2770845 L154.773362,63.2770845 C154.893202,63.2770845 154.991641,63.3091841 155.068682,63.3733845 C155.145722,63.4375848 155.197082,63.5082041 155.222762,63.5852445 L158.445602,73.6646446 C158.496962,73.8615256 158.541902,74.0519837 158.580422,74.2360246 C158.618942,74.4200655 158.655322,74.6019637 158.689562,74.7817246 C158.732362,74.6019637 158.781582,74.4200655 158.837222,74.2360246 C158.892862,74.0519837 158.954922,73.8615256 159.023402,73.6646446 L162.438842,63.4953645 C162.498762,63.3070435 162.618601,63.2128845 162.798362,63.2128845 L163.299122,63.2128845 C163.487443,63.2128845 163.611562,63.3070435 163.671482,63.4953645 L167.061242,73.6646446 C167.121162,73.8615256 167.174662,74.0498437 167.221742,74.2296046 C167.268822,74.4093655 167.313762,74.5934037 167.356562,74.7817246 C167.399362,74.6019637 167.440022,74.4200655 167.478542,74.2360246 C167.517062,74.0519837 167.566282,73.8615256 167.626202,73.6646446 L170.874722,63.5852445 C170.908962,63.491084 170.964602,63.4161847 171.041642,63.3605445 C171.118682,63.3049042 171.208562,63.2770845 171.311282,63.2770845 L172.197242,63.2770845 L167.934362,76.0528846 L167.022722,76.0528846 C166.877201,76.0528846 166.778762,75.9630055 166.727402,75.7832446 L163.234922,65.4085245 C163.192122,65.2801238 163.153602,65.1517251 163.119362,65.0233245 C163.085122,64.8949238 163.055162,64.7708051 163.029482,64.6509645 C163.003802,64.7793651 162.975982,64.9056239 162.946022,65.0297445 C162.916062,65.1538651 162.879682,65.2801238 162.836882,65.4085245 L159.293042,75.7832446 C159.241682,75.9630055 159.138963,76.0528846 158.984882,76.0528846 L158.111762,76.0528846 L153.848882,63.2770845 Z M182.674682,76.0528846 C182.417881,76.0528846 182.259522,75.9330458 182.199602,75.6933646 L182.019842,74.0626846 C181.66888,74.4050863 181.320064,74.7132432 180.973382,74.9871646 C180.6267,75.261086 180.265044,75.4922037 179.888402,75.6805246 C179.51176,75.8688456 179.105164,76.0122241 178.668602,76.1106646 C178.23204,76.2091051 177.752685,76.2583246 177.230522,76.2583246 C176.79396,76.2583246 176.370244,76.1941253 175.959362,76.0657246 C175.54848,75.937324 175.182544,75.7404459 174.861542,75.4750846 C174.54054,75.2097233 174.283743,74.8694667 174.091142,74.4543046 C173.898541,74.0391425 173.802242,73.5405275 173.802242,72.9584446 C173.802242,72.4191619 173.956321,71.9184069 174.264482,71.4561646 C174.572644,70.9939222 175.056279,70.5916063 175.715402,70.2492045 C176.374525,69.9068028 177.219817,69.6328856 178.251302,69.4274445 C179.282787,69.2220035 180.521835,69.1021647 181.968482,69.0679245 L181.968482,67.7325645 C181.968482,66.5512786 181.713825,65.6417877 181.204502,65.0040645 C180.69518,64.3663413 179.939767,64.0474845 178.938242,64.0474845 C178.321919,64.0474845 177.797624,64.1330836 177.365342,64.3042845 C176.93306,64.4754853 176.567124,64.6638035 176.267522,64.8692445 C175.967921,65.0746855 175.723963,65.2630036 175.535642,65.4342045 C175.347321,65.6054053 175.188963,65.6910045 175.060562,65.6910045 C174.966402,65.6910045 174.889362,65.6696047 174.829442,65.6268045 C174.769522,65.5840043 174.718162,65.5283648 174.675362,65.4598845 L174.457082,65.0875245 C175.124765,64.4198411 175.826678,63.9148062 176.562842,63.5724045 C177.299006,63.2300028 178.133597,63.0588045 179.066642,63.0588045 C179.751446,63.0588045 180.35064,63.1679434 180.864242,63.3862245 C181.377845,63.6045056 181.8037,63.9169424 182.141822,64.3235445 C182.479944,64.7301465 182.734601,65.2223416 182.905802,65.8001445 C183.077003,66.3779474 183.162602,67.022081 183.162602,67.7325645 L183.162602,76.0528846 L182.674682,76.0528846 Z M177.538682,75.3723646 C178.035165,75.3723646 178.49098,75.3188651 178.906142,75.2118646 C179.321304,75.1048641 179.7065,74.9550656 180.061742,74.7624646 C180.416984,74.5698636 180.748681,74.3408859 181.056842,74.0755246 C181.365004,73.8101633 181.668881,73.5234061 181.968482,73.2152446 L181.968482,69.8896845 C180.752956,69.9239247 179.704367,70.0159438 178.822682,70.1657445 C177.940998,70.3155453 177.215545,70.5188433 176.646302,70.7756446 C176.077059,71.0324458 175.657623,71.3384628 175.387982,71.6937046 C175.118341,72.0489463 174.983522,72.4534023 174.983522,72.9070846 C174.983522,73.3350867 175.054141,73.705303 175.195382,74.0177446 C175.336623,74.3301862 175.524941,74.5869836 175.760342,74.7881446 C175.995743,74.9893056 176.267521,75.1369641 176.575682,75.2311246 C176.883844,75.3252851 177.20484,75.3723646 177.538682,75.3723646 L177.538682,75.3723646 Z M187.245722,76.0528846 L187.245722,63.2770845 L187.900562,63.2770845 C188.046083,63.2770845 188.148802,63.3070442 188.208722,63.3669645 C188.268643,63.4268848 188.307162,63.5296037 188.324282,63.6751245 L188.414162,66.3586845 C188.611043,65.8365219 188.835741,65.3721465 189.088262,64.9655445 C189.340784,64.5589424 189.631821,64.2144059 189.961382,63.9319245 C190.290944,63.6494431 190.65902,63.4333052 191.065622,63.2835045 C191.472224,63.1337037 191.92376,63.0588045 192.420242,63.0588045 C192.685604,63.0588045 192.946681,63.0823442 193.203482,63.1294245 C193.460284,63.1765047 193.687121,63.2599639 193.884002,63.3798045 L193.781282,64.2272445 C193.738482,64.3642052 193.657163,64.4326845 193.537322,64.4326845 C193.434602,64.4326845 193.278383,64.4027248 193.068662,64.3428045 C192.858941,64.2828842 192.582884,64.2529245 192.240482,64.2529245 C191.744,64.2529245 191.303164,64.3299637 190.917962,64.4840445 C190.53276,64.6381253 190.190364,64.862823 189.890762,65.1581445 C189.591161,65.453466 189.327943,65.8215423 189.101102,66.2623845 C188.874261,66.7032267 188.666683,67.2104016 188.478362,67.7839245 L188.478362,76.0528846 L187.245722,76.0528846 Z M200.612162,63.0716445 C201.331206,63.0716445 201.998879,63.1957632 202.615202,63.4440045 C203.231525,63.6922457 203.76652,64.0539021 204.220202,64.5289845 C204.673885,65.0040669 205.031261,65.588281 205.292342,66.2816445 C205.553424,66.975008 205.683962,67.77108 205.683962,68.6698845 C205.683962,68.8582055 205.658283,68.9866042 205.606922,69.0550845 C205.555562,69.1235649 205.469963,69.1578045 205.350122,69.1578045 L196.053962,69.1578045 L196.053962,69.4017645 C196.053962,70.3604893 196.165241,71.2036409 196.387802,71.9312446 C196.610363,72.6588482 196.92708,73.2687421 197.337962,73.7609446 C197.748844,74.2531471 198.245319,74.6233634 198.827402,74.8716046 C199.409485,75.1198458 200.060039,75.2439646 200.779082,75.2439646 C201.421086,75.2439646 201.97748,75.1733453 202.448282,75.0321046 C202.919085,74.8908639 203.314981,74.7325055 203.635982,74.5570246 C203.956984,74.3815437 204.211641,74.2231853 204.399962,74.0819446 C204.588283,73.9407039 204.725242,73.8700846 204.810842,73.8700846 C204.922123,73.8700846 205.007722,73.9128842 205.067642,73.9984846 L205.401482,74.4093646 C205.196041,74.6661659 204.924264,74.9058435 204.586142,75.1284046 C204.248021,75.3509657 203.871384,75.5414238 203.456222,75.6997846 C203.04106,75.8581454 202.595945,75.9844041 202.120862,76.0785646 C201.64578,76.1727251 201.168565,76.2198046 200.689202,76.2198046 C199.816078,76.2198046 199.020006,76.0678661 198.300962,75.7639846 C197.581919,75.4601031 196.965605,75.0171275 196.452002,74.4350446 C195.9384,73.8529617 195.542504,73.1403488 195.264302,72.2971846 C194.986101,71.4540203 194.847002,70.48889 194.847002,69.4017645 C194.847002,68.4858399 194.977541,67.6405484 195.238622,66.8658645 C195.499704,66.0911806 195.87634,65.4235073 196.368542,64.8628245 C196.860745,64.3021417 197.464219,63.8634461 198.178982,63.5467245 C198.893746,63.2300029 199.704798,63.0716445 200.612162,63.0716445 L200.612162,63.0716445 Z M200.625002,63.9832845 C199.965879,63.9832845 199.375245,64.0860034 198.853082,64.2914445 C198.33092,64.4968855 197.879384,64.7922026 197.498462,65.1774045 C197.11754,65.5626064 196.809384,66.0248418 196.573982,66.5641245 C196.338581,67.1034072 196.182363,67.7068812 196.105322,68.3745645 L204.579722,68.3745645 C204.579722,67.6897611 204.483423,67.0755872 204.290822,66.5320245 C204.098221,65.9884618 203.826444,65.5283664 203.475482,65.1517245 C203.124521,64.7750826 202.707225,64.4861855 202.223582,64.2850245 C201.73994,64.0838635 201.207085,63.9832845 200.625002,63.9832845 L200.625002,63.9832845 Z M219.474123,76.2583246 C218.609558,76.2583246 217.935465,76.018647 217.451823,75.5392846 C216.96818,75.0599222 216.726363,74.3194896 216.726363,73.3179646 L216.726363,64.5867645 L214.890243,64.5867645 C214.796082,64.5867645 214.719043,64.5610847 214.659123,64.5097245 C214.599202,64.4583642 214.569243,64.3856049 214.569243,64.2914445 L214.569243,63.8163645 L216.752043,63.6622845 L217.060203,59.0912444 C217.077323,59.014204 217.111562,58.9457247 217.162923,58.8858044 C217.214283,58.8258841 217.287042,58.7959244 217.381203,58.7959244 L217.959003,58.7959244 L217.959003,63.6751245 L221.990763,63.6751245 L221.990763,64.5867645 L217.959003,64.5867645 L217.959003,73.2537646 C217.959003,73.6047263 218.003942,73.9064633 218.093823,74.1589846 C218.183703,74.4115059 218.307822,74.6190838 218.466183,74.7817246 C218.624543,74.9443654 218.810722,75.0642042 219.024723,75.1412446 C219.238724,75.218285 219.469841,75.2568046 219.718083,75.2568046 C220.026244,75.2568046 220.291602,75.2118651 220.514163,75.1219846 C220.736724,75.0321042 220.929322,74.9336651 221.091963,74.8266646 C221.254603,74.7196641 221.387282,74.621225 221.490003,74.5313446 C221.592723,74.4414641 221.674042,74.3965246 221.733963,74.3965246 C221.802443,74.3965246 221.870922,74.4393242 221.939403,74.5249246 L222.273243,75.0642046 C221.947961,75.4237264 221.534945,75.7126235 221.034183,75.9309046 C220.53342,76.1491857 220.013405,76.2583246 219.474123,76.2583246 L219.474123,76.2583246 Z M229.836003,63.0716445 C230.751927,63.0716445 231.571539,63.2278629 232.294863,63.5403045 C233.018186,63.852746 233.62808,64.2957216 234.124563,64.8692445 C234.621045,65.4427674 234.999821,66.1339805 235.260903,66.9429045 C235.521984,67.7518286 235.652523,68.6570395 235.652523,69.6585645 C235.652523,70.6600896 235.521984,71.5631605 235.260903,72.3678046 C234.999821,73.1724486 234.621045,73.8615217 234.124563,74.4350446 C233.62808,75.0085675 233.018186,75.4494031 232.294863,75.7575646 C231.571539,76.0657262 230.751927,76.2198046 229.836003,76.2198046 C228.920078,76.2198046 228.100466,76.0657262 227.377143,75.7575646 C226.653819,75.4494031 226.041785,75.0085675 225.541023,74.4350446 C225.04026,73.8615217 224.659344,73.1724486 224.398263,72.3678046 C224.137181,71.5631605 224.006643,70.6600896 224.006643,69.6585645 C224.006643,68.6570395 224.137181,67.7518286 224.398263,66.9429045 C224.659344,66.1339805 225.04026,65.4427674 225.541023,64.8692445 C226.041785,64.2957216 226.653819,63.852746 227.377143,63.5403045 C228.100466,63.2278629 228.920078,63.0716445 229.836003,63.0716445 L229.836003,63.0716445 Z M229.836003,75.2568046 C230.597847,75.2568046 231.26338,75.1262659 231.832623,74.8651846 C232.401866,74.6041033 232.876941,74.229607 233.257863,73.7416846 C233.638785,73.2537621 233.923402,72.665268 234.111723,71.9761846 C234.300044,71.2871011 234.394203,70.5145688 234.394203,69.6585645 C234.394203,68.8111203 234.300044,68.040728 234.111723,67.3473645 C233.923402,66.654001 233.638785,66.061227 233.257863,65.5690245 C232.876941,65.076822 232.401866,64.6980458 231.832623,64.4326845 C231.26338,64.1673231 230.597847,64.0346445 229.836003,64.0346445 C229.074159,64.0346445 228.408626,64.1673231 227.839383,64.4326845 C227.27014,64.6980458 226.795065,65.076822 226.414143,65.5690245 C226.033221,66.061227 225.746464,66.654001 225.553863,67.3473645 C225.361262,68.040728 225.264963,68.8111203 225.264963,69.6585645 C225.264963,70.5145688 225.361262,71.2871011 225.553863,71.9761846 C225.746464,72.665268 226.033221,73.2537621 226.414143,73.7416846 C226.795065,74.229607 227.27014,74.6041033 227.839383,74.8651846 C228.408626,75.1262659 229.074159,75.2568046 229.836003,75.2568046 L229.836003,75.2568046 Z M251.073363,63.0716445 C251.792407,63.0716445 252.46008,63.1957632 253.076403,63.4440045 C253.692726,63.6922457 254.227721,64.0539021 254.681403,64.5289845 C255.135085,65.0040669 255.492462,65.588281 255.753543,66.2816445 C256.014624,66.975008 256.145163,67.77108 256.145163,68.6698845 C256.145163,68.8582055 256.119483,68.9866042 256.068123,69.0550845 C256.016763,69.1235649 255.931164,69.1578045 255.811323,69.1578045 L246.515163,69.1578045 L246.515163,69.4017645 C246.515163,70.3604893 246.626442,71.2036409 246.849003,71.9312446 C247.071564,72.6588482 247.388281,73.2687421 247.799163,73.7609446 C248.210045,74.2531471 248.70652,74.6233634 249.288603,74.8716046 C249.870686,75.1198458 250.521239,75.2439646 251.240283,75.2439646 C251.882286,75.2439646 252.438681,75.1733453 252.909483,75.0321046 C253.380285,74.8908639 253.776181,74.7325055 254.097183,74.5570246 C254.418185,74.3815437 254.672842,74.2231853 254.861163,74.0819446 C255.049484,73.9407039 255.186443,73.8700846 255.272043,73.8700846 C255.383324,73.8700846 255.468923,73.9128842 255.528843,73.9984846 L255.862683,74.4093646 C255.657242,74.6661659 255.385465,74.9058435 255.047343,75.1284046 C254.709221,75.3509657 254.332585,75.5414238 253.917423,75.6997846 C253.502261,75.8581454 253.057145,75.9844041 252.582063,76.0785646 C252.106981,76.1727251 251.629765,76.2198046 251.150403,76.2198046 C250.277279,76.2198046 249.481207,76.0678661 248.762163,75.7639846 C248.043119,75.4601031 247.426806,75.0171275 246.913203,74.4350446 C246.3996,73.8529617 246.003704,73.1403488 245.725503,72.2971846 C245.447302,71.4540203 245.308203,70.48889 245.308203,69.4017645 C245.308203,68.4858399 245.438742,67.6405484 245.699823,66.8658645 C245.960904,66.0911806 246.33754,65.4235073 246.829743,64.8628245 C247.321945,64.3021417 247.925419,63.8634461 248.640183,63.5467245 C249.354947,63.2300029 250.165998,63.0716445 251.073363,63.0716445 L251.073363,63.0716445 Z M251.086203,63.9832845 C250.42708,63.9832845 249.836446,64.0860034 249.314283,64.2914445 C248.79212,64.4968855 248.340585,64.7922026 247.959663,65.1774045 C247.578741,65.5626064 247.270584,66.0248418 247.035183,66.5641245 C246.799782,67.1034072 246.643563,67.7068812 246.566523,68.3745645 L255.040923,68.3745645 C255.040923,67.6897611 254.944624,67.0755872 254.752023,66.5320245 C254.559422,65.9884618 254.287645,65.5283664 253.936683,65.1517245 C253.585721,64.7750826 253.168425,64.4861855 252.684783,64.2850245 C252.201141,64.0838635 251.668286,63.9832845 251.086203,63.9832845 L251.086203,63.9832845 Z M259.470723,76.0528846 L259.470723,63.2770845 L260.151243,63.2770845 C260.365244,63.2770845 260.489363,63.3840834 260.523603,63.5980845 L260.639163,65.4470445 C261.135646,64.7365609 261.70488,64.1630467 262.346883,63.7264845 C262.988886,63.2899223 263.712199,63.0716445 264.516843,63.0716445 C265.449888,63.0716445 266.19674,63.3412818 266.757423,63.8805645 C267.318106,64.4198472 267.696882,65.1688397 267.893763,66.1275645 C268.047844,65.6054019 268.263982,65.1517264 268.542183,64.7665245 C268.820385,64.3813226 269.139241,64.0624657 269.498763,63.8099445 C269.858285,63.5574232 270.249901,63.3712451 270.673623,63.2514045 C271.097345,63.1315639 271.531761,63.0716445 271.976883,63.0716445 C272.610326,63.0716445 273.179561,63.1765034 273.684603,63.3862245 C274.189646,63.5959455 274.617642,63.9062424 274.968603,64.3171245 C275.319565,64.7280065 275.589202,65.2330415 275.777523,65.8322445 C275.965844,66.4314475 276.060003,67.1162407 276.060003,67.8866445 L276.060003,76.0528846 L274.840203,76.0528846 L274.840203,67.8866445 C274.840203,66.6368783 274.570566,65.6845878 274.031283,65.0297445 C273.492001,64.3749012 272.721608,64.0474845 271.720083,64.0474845 C271.274961,64.0474845 270.849105,64.1288037 270.442503,64.2914445 C270.035901,64.4540853 269.676385,64.6959029 269.363943,65.0169045 C269.051502,65.3379061 268.803264,65.7380821 268.619223,66.2174445 C268.435182,66.6968069 268.343163,67.2532013 268.343163,67.8866445 L268.343163,76.0528846 L267.110523,76.0528846 L267.110523,67.8866445 C267.110523,66.6454383 266.864426,65.6952878 266.372223,65.0361645 C265.880021,64.3770412 265.158848,64.0474845 264.208683,64.0474845 C263.51532,64.0474845 262.873326,64.2529224 262.282683,64.6638045 C261.69204,65.0746865 261.165605,65.6439209 260.703363,66.3715245 L260.703363,76.0528846 L259.470723,76.0528846 Z M280.143123,80.5725647 L280.143123,63.2770845 L280.823643,63.2770845 C281.037644,63.2770845 281.161763,63.3840834 281.196003,63.5980845 L281.311563,65.5754445 C281.876526,64.8050406 282.53992,64.1930067 283.301763,63.7393245 C284.063607,63.2856422 284.915319,63.0588045 285.856923,63.0588045 C287.423411,63.0588045 288.645339,63.602359 289.522743,64.6894845 C290.400148,65.7766099 290.838843,67.4072736 290.838843,69.5815245 C290.838843,70.5145692 290.716865,71.3855405 290.472903,72.1944646 C290.228942,73.0033886 289.869426,73.7053016 289.394343,74.3002246 C288.919261,74.8951476 288.337187,75.3638029 287.648103,75.7062046 C286.95902,76.0486063 286.165088,76.2198046 285.266283,76.2198046 C284.401719,76.2198046 283.652727,76.0614462 283.019283,75.7447246 C282.38584,75.428003 281.838006,74.9614877 281.375763,74.3451646 L281.375763,80.5725647 L280.143123,80.5725647 Z M285.510243,64.0474845 C284.662799,64.0474845 283.896687,64.2657623 283.211883,64.7023245 C282.52708,65.1388867 281.915046,65.7466406 281.375763,66.5256045 L281.375763,73.2666046 C281.863686,74.0027683 282.40296,74.5185031 282.993603,74.8138246 C283.584246,75.1091461 284.26476,75.2568046 285.035163,75.2568046 C285.788447,75.2568046 286.447561,75.119846 287.012523,74.8459246 C287.577486,74.5720032 288.050422,74.1846671 288.431343,73.6839046 C288.812265,73.1831421 289.099022,72.5839481 289.291623,71.8863046 C289.484224,71.1886611 289.580523,70.4204087 289.580523,69.5815245 C289.580523,67.681195 289.229567,66.283789 288.527643,65.3892645 C287.82572,64.49474 286.81993,64.0474845 285.510243,64.0474845 L285.510243,64.0474845 Z M299.364604,63.0716445 C300.280528,63.0716445 301.10014,63.2278629 301.823464,63.5403045 C302.546787,63.852746 303.156681,64.2957216 303.653164,64.8692445 C304.149646,65.4427674 304.528422,66.1339805 304.789504,66.9429045 C305.050585,67.7518286 305.181124,68.6570395 305.181124,69.6585645 C305.181124,70.6600896 305.050585,71.5631605 304.789504,72.3678046 C304.528422,73.1724486 304.149646,73.8615217 303.653164,74.4350446 C303.156681,75.0085675 302.546787,75.4494031 301.823464,75.7575646 C301.10014,76.0657262 300.280528,76.2198046 299.364604,76.2198046 C298.448679,76.2198046 297.629067,76.0657262 296.905744,75.7575646 C296.18242,75.4494031 295.570386,75.0085675 295.069624,74.4350446 C294.568861,73.8615217 294.187945,73.1724486 293.926863,72.3678046 C293.665782,71.5631605 293.535243,70.6600896 293.535243,69.6585645 C293.535243,68.6570395 293.665782,67.7518286 293.926863,66.9429045 C294.187945,66.1339805 294.568861,65.4427674 295.069624,64.8692445 C295.570386,64.2957216 296.18242,63.852746 296.905744,63.5403045 C297.629067,63.2278629 298.448679,63.0716445 299.364604,63.0716445 L299.364604,63.0716445 Z M299.364604,75.2568046 C300.126447,75.2568046 300.791981,75.1262659 301.361224,74.8651846 C301.930466,74.6041033 302.405542,74.229607 302.786464,73.7416846 C303.167386,73.2537621 303.452003,72.665268 303.640324,71.9761846 C303.828645,71.2871011 303.922804,70.5145688 303.922804,69.6585645 C303.922804,68.8111203 303.828645,68.040728 303.640324,67.3473645 C303.452003,66.654001 303.167386,66.061227 302.786464,65.5690245 C302.405542,65.076822 301.930466,64.6980458 301.361224,64.4326845 C300.791981,64.1673231 300.126447,64.0346445 299.364604,64.0346445 C298.60276,64.0346445 297.937226,64.1673231 297.367984,64.4326845 C296.798741,64.6980458 296.323665,65.076822 295.942744,65.5690245 C295.561822,66.061227 295.275064,66.654001 295.082464,67.3473645 C294.889863,68.040728 294.793564,68.8111203 294.793564,69.6585645 C294.793564,70.5145688 294.889863,71.2871011 295.082464,71.9761846 C295.275064,72.665268 295.561822,73.2537621 295.942744,73.7416846 C296.323665,74.229607 296.798741,74.6041033 297.367984,74.8651846 C297.937226,75.1262659 298.60276,75.2568046 299.364604,75.2568046 L299.364604,75.2568046 Z M307.017244,63.2770845 L307.941724,63.2770845 C308.061564,63.2770845 308.160003,63.3091841 308.237044,63.3733845 C308.314084,63.4375848 308.365444,63.5082041 308.391124,63.5852445 L311.613964,73.6646446 C311.665324,73.8615256 311.710264,74.0519837 311.748784,74.2360246 C311.787304,74.4200655 311.823684,74.6019637 311.857924,74.7817246 C311.900724,74.6019637 311.949943,74.4200655 312.005584,74.2360246 C312.061224,74.0519837 312.123283,73.8615256 312.191764,73.6646446 L315.607204,63.4953645 C315.667124,63.3070435 315.786963,63.2128845 315.966724,63.2128845 L316.467484,63.2128845 C316.655805,63.2128845 316.779923,63.3070435 316.839844,63.4953645 L320.229604,73.6646446 C320.289524,73.8615256 320.343024,74.0498437 320.390104,74.2296046 C320.437184,74.4093655 320.482124,74.5934037 320.524924,74.7817246 C320.567724,74.6019637 320.608384,74.4200655 320.646904,74.2360246 C320.685424,74.0519837 320.734644,73.8615256 320.794564,73.6646446 L324.043084,63.5852445 C324.077324,63.491084 324.132963,63.4161847 324.210004,63.3605445 C324.287044,63.3049042 324.376923,63.2770845 324.479644,63.2770845 L325.365604,63.2770845 L321.102724,76.0528846 L320.191084,76.0528846 C320.045563,76.0528846 319.947124,75.9630055 319.895764,75.7832446 L316.403284,65.4085245 C316.360484,65.2801238 316.321964,65.1517251 316.287724,65.0233245 C316.253484,64.8949238 316.223524,64.7708051 316.197844,64.6509645 C316.172164,64.7793651 316.144344,64.9056239 316.114384,65.0297445 C316.084424,65.1538651 316.048044,65.2801238 316.005244,65.4085245 L312.461404,75.7832446 C312.410043,75.9630055 312.307324,76.0528846 312.153244,76.0528846 L311.280124,76.0528846 L307.017244,63.2770845 Z M332.966884,63.0716445 C333.685928,63.0716445 334.353601,63.1957632 334.969924,63.4440045 C335.586247,63.6922457 336.121242,64.0539021 336.574924,64.5289845 C337.028606,65.0040669 337.385983,65.588281 337.647064,66.2816445 C337.908145,66.975008 338.038684,67.77108 338.038684,68.6698845 C338.038684,68.8582055 338.013004,68.9866042 337.961644,69.0550845 C337.910284,69.1235649 337.824685,69.1578045 337.704844,69.1578045 L328.408684,69.1578045 L328.408684,69.4017645 C328.408684,70.3604893 328.519963,71.2036409 328.742524,71.9312446 C328.965085,72.6588482 329.281802,73.2687421 329.692684,73.7609446 C330.103566,74.2531471 330.600041,74.6233634 331.182124,74.8716046 C331.764207,75.1198458 332.41476,75.2439646 333.133804,75.2439646 C333.775807,75.2439646 334.332202,75.1733453 334.803004,75.0321046 C335.273806,74.8908639 335.669702,74.7325055 335.990704,74.5570246 C336.311706,74.3815437 336.566363,74.2231853 336.754684,74.0819446 C336.943005,73.9407039 337.079964,73.8700846 337.165564,73.8700846 C337.276845,73.8700846 337.362444,73.9128842 337.422364,73.9984846 L337.756204,74.4093646 C337.550763,74.6661659 337.278986,74.9058435 336.940864,75.1284046 C336.602742,75.3509657 336.226106,75.5414238 335.810944,75.6997846 C335.395782,75.8581454 334.950666,75.9844041 334.475584,76.0785646 C334.000502,76.1727251 333.523286,76.2198046 333.043924,76.2198046 C332.1708,76.2198046 331.374728,76.0678661 330.655684,75.7639846 C329.93664,75.4601031 329.320326,75.0171275 328.806724,74.4350446 C328.293121,73.8529617 327.897225,73.1403488 327.619024,72.2971846 C327.340822,71.4540203 327.201724,70.48889 327.201724,69.4017645 C327.201724,68.4858399 327.332263,67.6405484 327.593344,66.8658645 C327.854425,66.0911806 328.231061,65.4235073 328.723264,64.8628245 C329.215466,64.3021417 329.81894,63.8634461 330.533704,63.5467245 C331.248468,63.2300029 332.059519,63.0716445 332.966884,63.0716445 L332.966884,63.0716445 Z M332.979724,63.9832845 C332.320601,63.9832845 331.729967,64.0860034 331.207804,64.2914445 C330.685641,64.4968855 330.234106,64.7922026 329.853184,65.1774045 C329.472262,65.5626064 329.164105,66.0248418 328.928704,66.5641245 C328.693303,67.1034072 328.537084,67.7068812 328.460044,68.3745645 L336.934444,68.3745645 C336.934444,67.6897611 336.838145,67.0755872 336.645544,66.5320245 C336.452943,65.9884618 336.181166,65.5283664 335.830204,65.1517245 C335.479242,64.7750826 335.061946,64.4861855 334.578304,64.2850245 C334.094662,64.0838635 333.561807,63.9832845 332.979724,63.9832845 L332.979724,63.9832845 Z M341.364244,76.0528846 L341.364244,63.2770845 L342.019084,63.2770845 C342.164605,63.2770845 342.267324,63.3070442 342.327244,63.3669645 C342.387164,63.4268848 342.425684,63.5296037 342.442804,63.6751245 L342.532684,66.3586845 C342.729565,65.8365219 342.954263,65.3721465 343.206784,64.9655445 C343.459305,64.5589424 343.750342,64.2144059 344.079904,63.9319245 C344.409466,63.6494431 344.777542,63.4333052 345.184144,63.2835045 C345.590746,63.1337037 346.042282,63.0588045 346.538764,63.0588045 C346.804125,63.0588045 347.065203,63.0823442 347.322004,63.1294245 C347.578805,63.1765047 347.805643,63.2599639 348.002524,63.3798045 L347.899804,64.2272445 C347.857004,64.3642052 347.775685,64.4326845 347.655844,64.4326845 C347.553124,64.4326845 347.396905,64.4027248 347.187184,64.3428045 C346.977463,64.2828842 346.701406,64.2529245 346.359004,64.2529245 C345.862522,64.2529245 345.421686,64.3299637 345.036484,64.4840445 C344.651282,64.6381253 344.308886,64.862823 344.009284,65.1581445 C343.709683,65.453466 343.446465,65.8215423 343.219624,66.2623845 C342.992783,66.7032267 342.785205,67.2104016 342.596884,67.7839245 L342.596884,76.0528846 L341.364244,76.0528846 Z M357.953524,63.2770845 L357.953524,71.4433246 C357.953524,72.6417306 358.227442,73.5811812 358.775284,74.2617046 C359.323127,74.942228 360.157719,75.2824846 361.279084,75.2824846 C362.109408,75.2824846 362.884081,75.0706267 363.603124,74.6469046 C364.322168,74.2231825 364.968441,73.6346884 365.541964,72.8814046 L365.541964,63.2770845 L366.774604,63.2770845 L366.774604,76.0528846 L366.094084,76.0528846 C365.880083,76.0528846 365.755965,75.9416057 365.721724,75.7190446 L365.606164,73.8187246 C365.015521,74.5548883 364.332868,75.1455224 363.558184,75.5906446 C362.7835,76.0357668 361.921089,76.2583246 360.970924,76.2583246 C360.260441,76.2583246 359.639847,76.1470457 359.109124,75.9244846 C358.578402,75.7019235 358.137566,75.3809267 357.786604,74.9614846 C357.435642,74.5420425 357.170285,74.0370075 356.990524,73.4463646 C356.810763,72.8557216 356.720884,72.1880483 356.720884,71.4433246 L356.720884,63.2770845 L357.953524,63.2770845 Z M377.996764,64.8564045 C377.928284,64.9762451 377.829845,65.0361645 377.701444,65.0361645 C377.607284,65.0361645 377.487445,64.982665 377.341924,64.8756645 C377.196404,64.7686639 377.001666,64.6488251 376.757704,64.5161445 C376.513743,64.3834638 376.212006,64.263625 375.852484,64.1566245 C375.492963,64.0496239 375.056407,63.9961245 374.542804,63.9961245 C374.080562,63.9961245 373.658986,64.0624638 373.278064,64.1951445 C372.897143,64.3278251 372.571866,64.5054434 372.302224,64.7280045 C372.032583,64.9505656 371.825005,65.209503 371.679484,65.5048245 C371.533964,65.800146 371.461204,66.1104429 371.461204,66.4357245 C371.461204,66.8380465 371.563923,67.1718832 371.769364,67.4372445 C371.974805,67.7026058 372.242303,67.9294436 372.571864,68.1177645 C372.901426,68.3060855 373.280202,68.4687238 373.708204,68.6056845 C374.136207,68.7426452 374.570622,68.8796038 375.011464,69.0165645 C375.452307,69.1535252 375.886722,69.3054637 376.314724,69.4723845 C376.742727,69.6393054 377.121503,69.8468833 377.451064,70.0951245 C377.780626,70.3433658 378.048123,70.6472428 378.253564,71.0067646 C378.459006,71.3662864 378.561724,71.802842 378.561724,72.3164446 C378.561724,72.8728474 378.463285,73.3907222 378.266404,73.8700846 C378.069524,74.349447 377.780626,74.7646028 377.399704,75.1155646 C377.018783,75.4665264 376.550127,75.7447236 375.993724,75.9501646 C375.437322,76.1556056 374.799608,76.2583246 374.080564,76.2583246 C373.18176,76.2583246 372.407088,76.114946 371.756524,75.8281846 C371.105961,75.5414232 370.523887,75.1669269 370.010284,74.7046846 L370.292764,74.2681246 C370.335565,74.1996443 370.384784,74.1482848 370.440424,74.1140446 C370.496065,74.0798044 370.570964,74.0626846 370.665124,74.0626846 C370.776405,74.0626846 370.911224,74.1311639 371.069584,74.2681246 C371.227945,74.4050853 371.439803,74.5527438 371.705164,74.7111046 C371.970526,74.8694654 372.297942,75.0171239 372.687424,75.1540846 C373.076906,75.2910453 373.558402,75.3595246 374.131924,75.3595246 C374.671207,75.3595246 375.146282,75.2846254 375.557164,75.1348246 C375.968047,74.9850239 376.310443,74.7817259 376.584364,74.5249246 C376.858286,74.2681233 377.065864,73.9663863 377.207104,73.6197046 C377.348345,73.2730228 377.418964,72.9070865 377.418964,72.5218846 C377.418964,72.0938824 377.316246,71.738646 377.110804,71.4561646 C376.905363,71.1736831 376.635726,70.9340055 376.301884,70.7371246 C375.968043,70.5402436 375.589267,70.3733252 375.165544,70.2363645 C374.741822,70.0994039 374.307407,69.9624452 373.862284,69.8254845 C373.417162,69.6885239 372.982747,69.5387254 372.559024,69.3760845 C372.135302,69.2134437 371.756526,69.0080058 371.422684,68.7597645 C371.088843,68.5115233 370.819205,68.2097863 370.613764,67.8545445 C370.408323,67.4993027 370.305604,67.0563272 370.305604,66.5256045 C370.305604,66.0719222 370.404043,65.6353666 370.600924,65.2159245 C370.797805,64.7964824 371.078143,64.4284061 371.441944,64.1116845 C371.805746,63.7949629 372.248722,63.5424454 372.770884,63.3541245 C373.293047,63.1658035 373.879401,63.0716445 374.529964,63.0716445 C375.308928,63.0716445 376.000141,63.1829233 376.603624,63.4054845 C377.207108,63.6280456 377.757082,63.9704422 378.253564,64.4326845 L377.996764,64.8564045 Z M386.882045,63.0716445 C387.601088,63.0716445 388.268762,63.1957632 388.885085,63.4440045 C389.501408,63.6922457 390.036402,64.0539021 390.490085,64.5289845 C390.943767,65.0040669 391.301143,65.588281 391.562225,66.2816445 C391.823306,66.975008 391.953845,67.77108 391.953845,68.6698845 C391.953845,68.8582055 391.928165,68.9866042 391.876805,69.0550845 C391.825444,69.1235649 391.739845,69.1578045 391.620005,69.1578045 L382.323845,69.1578045 L382.323845,69.4017645 C382.323845,70.3604893 382.435123,71.2036409 382.657685,71.9312446 C382.880246,72.6588482 383.196962,73.2687421 383.607845,73.7609446 C384.018727,74.2531471 384.515202,74.6233634 385.097285,74.8716046 C385.679367,75.1198458 386.329921,75.2439646 387.048965,75.2439646 C387.690968,75.2439646 388.247362,75.1733453 388.718165,75.0321046 C389.188967,74.8908639 389.584863,74.7325055 389.905865,74.5570246 C390.226866,74.3815437 390.481524,74.2231853 390.669845,74.0819446 C390.858166,73.9407039 390.995124,73.8700846 391.080725,73.8700846 C391.192005,73.8700846 391.277604,73.9128842 391.337525,73.9984846 L391.671365,74.4093646 C391.465924,74.6661659 391.194146,74.9058435 390.856025,75.1284046 C390.517903,75.3509657 390.141267,75.5414238 389.726105,75.6997846 C389.310943,75.8581454 388.865827,75.9844041 388.390745,76.0785646 C387.915662,76.1727251 387.438447,76.2198046 386.959085,76.2198046 C386.08596,76.2198046 385.289888,76.0678661 384.570845,75.7639846 C383.851801,75.4601031 383.235487,75.0171275 382.721885,74.4350446 C382.208282,73.8529617 381.812386,73.1403488 381.534185,72.2971846 C381.255983,71.4540203 381.116885,70.48889 381.116885,69.4017645 C381.116885,68.4858399 381.247423,67.6405484 381.508505,66.8658645 C381.769586,66.0911806 382.146222,65.4235073 382.638425,64.8628245 C383.130627,64.3021417 383.734101,63.8634461 384.448865,63.5467245 C385.163628,63.2300029 385.97468,63.0716445 386.882045,63.0716445 L386.882045,63.0716445 Z M386.894885,63.9832845 C386.235761,63.9832845 385.645127,64.0860034 385.122965,64.2914445 C384.600802,64.4968855 384.149266,64.7922026 383.768345,65.1774045 C383.387423,65.5626064 383.079266,66.0248418 382.843865,66.5641245 C382.608463,67.1034072 382.452245,67.7068812 382.375205,68.3745645 L390.849605,68.3745645 C390.849605,67.6897611 390.753306,67.0755872 390.560705,66.5320245 C390.368104,65.9884618 390.096326,65.5283664 389.745365,65.1517245 C389.394403,64.7750826 388.977107,64.4861855 388.493465,64.2850245 C388.009822,64.0838635 387.476968,63.9832845 386.894885,63.9832845 L386.894885,63.9832845 Z M395.279405,76.0528846 L395.279405,63.2770845 L395.934245,63.2770845 C396.079765,63.2770845 396.182484,63.3070442 396.242405,63.3669645 C396.302325,63.4268848 396.340845,63.5296037 396.357965,63.6751245 L396.447845,66.3586845 C396.644726,65.8365219 396.869423,65.3721465 397.121945,64.9655445 C397.374466,64.5589424 397.665503,64.2144059 397.995065,63.9319245 C398.324626,63.6494431 398.692703,63.4333052 399.099305,63.2835045 C399.505907,63.1337037 399.957442,63.0588045 400.453925,63.0588045 C400.719286,63.0588045 400.980363,63.0823442 401.237165,63.1294245 C401.493966,63.1765047 401.720804,63.2599639 401.917685,63.3798045 L401.814965,64.2272445 C401.772165,64.3642052 401.690845,64.4326845 401.571005,64.4326845 C401.468284,64.4326845 401.312066,64.4027248 401.102345,64.3428045 C400.892624,64.2828842 400.616566,64.2529245 400.274165,64.2529245 C399.777682,64.2529245 399.336847,64.3299637 398.951645,64.4840445 C398.566443,64.6381253 398.224046,64.862823 397.924445,65.1581445 C397.624843,65.453466 397.361626,65.8215423 397.134785,66.2623845 C396.907944,66.7032267 396.700366,67.2104016 396.512045,67.7839245 L396.512045,76.0528846 L395.279405,76.0528846 Z M411.239525,64.8564045 C411.171045,64.9762451 411.072606,65.0361645 410.944205,65.0361645 C410.850044,65.0361645 410.730206,64.982665 410.584685,64.8756645 C410.439164,64.7686639 410.244426,64.6488251 410.000465,64.5161445 C409.756504,64.3834638 409.454767,64.263625 409.095245,64.1566245 C408.735723,64.0496239 408.299167,63.9961245 407.785565,63.9961245 C407.323323,63.9961245 406.901747,64.0624638 406.520825,64.1951445 C406.139903,64.3278251 405.814626,64.5054434 405.544985,64.7280045 C405.275343,64.9505656 405.067766,65.209503 404.922245,65.5048245 C404.776724,65.800146 404.703965,66.1104429 404.703965,66.4357245 C404.703965,66.8380465 404.806684,67.1718832 405.012125,67.4372445 C405.217566,67.7026058 405.485063,67.9294436 405.814625,68.1177645 C406.144186,68.3060855 406.522963,68.4687238 406.950965,68.6056845 C407.378967,68.7426452 407.813383,68.8796038 408.254225,69.0165645 C408.695067,69.1535252 409.129483,69.3054637 409.557485,69.4723845 C409.985487,69.6393054 410.364263,69.8468833 410.693825,70.0951245 C411.023387,70.3433658 411.290884,70.6472428 411.496325,71.0067646 C411.701766,71.3662864 411.804485,71.802842 411.804485,72.3164446 C411.804485,72.8728474 411.706046,73.3907222 411.509165,73.8700846 C411.312284,74.349447 411.023387,74.7646028 410.642465,75.1155646 C410.261543,75.4665264 409.792888,75.7447236 409.236485,75.9501646 C408.680082,76.1556056 408.042368,76.2583246 407.323325,76.2583246 C406.42452,76.2583246 405.649848,76.114946 404.999285,75.8281846 C404.348722,75.5414232 403.766647,75.1669269 403.253045,74.7046846 L403.535525,74.2681246 C403.578325,74.1996443 403.627545,74.1482848 403.683185,74.1140446 C403.738825,74.0798044 403.813724,74.0626846 403.907885,74.0626846 C404.019165,74.0626846 404.153984,74.1311639 404.312345,74.2681246 C404.470706,74.4050853 404.682563,74.5527438 404.947925,74.7111046 C405.213286,74.8694654 405.540703,75.0171239 405.930185,75.1540846 C406.319667,75.2910453 406.801162,75.3595246 407.374685,75.3595246 C407.913968,75.3595246 408.389043,75.2846254 408.799925,75.1348246 C409.210807,74.9850239 409.553203,74.7817259 409.827125,74.5249246 C410.101046,74.2681233 410.308624,73.9663863 410.449865,73.6197046 C410.591106,73.2730228 410.661725,72.9070865 410.661725,72.5218846 C410.661725,72.0938824 410.559006,71.738646 410.353565,71.4561646 C410.148124,71.1736831 409.878487,70.9340055 409.544645,70.7371246 C409.210803,70.5402436 408.832027,70.3733252 408.408305,70.2363645 C407.984583,70.0994039 407.550167,69.9624452 407.105045,69.8254845 C406.659923,69.6885239 406.225507,69.5387254 405.801785,69.3760845 C405.378063,69.2134437 404.999286,69.0080058 404.665445,68.7597645 C404.331603,68.5115233 404.061966,68.2097863 403.856525,67.8545445 C403.651084,67.4993027 403.548365,67.0563272 403.548365,66.5256045 C403.548365,66.0719222 403.646804,65.6353666 403.843685,65.2159245 C404.040566,64.7964824 404.320903,64.4284061 404.684705,64.1116845 C405.048507,63.7949629 405.491482,63.5424454 406.013645,63.3541245 C406.535807,63.1658035 407.122162,63.0716445 407.772725,63.0716445 C408.551689,63.0716445 409.242902,63.1829233 409.846385,63.4054845 C410.449868,63.6280456 410.999842,63.9704422 411.496325,64.4326845 L411.239525,64.8564045 Z" id="designing-software-t" fill="#000000"></path>
            </g>
        </g>
    </g>
</svg>
